<svg width="68" height="67" viewBox="0 0 68 67" fill="none" xmlns="http://www.w3.org/2000/svg">
<path d="M34.0562 56.96C28.8489 55.0945 24.4815 52.4648 21.0573 49.1225C17.9562 46.1041 15.5399 42.412 13.8601 38.1629C11.4309 31.9836 10.9916 25.7395 10.9399 21.4775C15.7079 20.2727 19.7264 16.9175 21.7163 12.2409C22.0006 11.5802 22.2332 10.9195 22.4141 10.2329H45.6854C45.8792 10.9195 46.1118 11.5932 46.3961 12.2409C48.386 16.9045 52.4045 20.2727 57.1725 21.4775C57.1337 25.7395 56.6944 31.9966 54.2523 38.1629C53.8129 39.277 53.3219 40.3522 52.7792 41.3886C54.6141 41.4275 56.4231 41.8938 58.0253 42.7488C63.4781 31.4136 62.3281 19.5343 62.4315 16.5548C61.9792 16.6066 61.527 16.6454 61.0618 16.6454C56.6556 16.6454 52.8826 13.9638 51.2545 10.1552C50.6989 8.87271 50.4017 7.44771 50.4017 5.95793C50.4017 5.60816 50.4146 5.25839 50.4534 4.92157H17.659C17.6978 5.25839 17.7107 5.60816 17.7107 5.95793C17.7107 7.44771 17.4135 8.85975 16.8579 10.1552C15.2298 13.9768 11.4438 16.6454 7.03766 16.6454C6.57249 16.6454 6.12025 16.6195 5.668 16.5548C5.86182 21.62 2.3989 52.5036 34.0562 62.5693C37.2478 61.5588 40.0776 60.3282 42.5972 58.942C41.654 57.3616 41.1113 55.5738 41.0079 53.7343C38.8888 54.9779 36.5759 56.0661 34.0562 56.96Z" fill="#3B4652"/>
<path d="M57.082 44.6014C55.7382 43.8759 54.2006 43.4614 52.5725 43.4614C52.2365 43.4614 51.8877 43.4743 51.5646 43.5132C46.9775 43.9925 43.3596 47.7493 43.0624 52.4C43.0495 52.6073 43.0365 52.8016 43.0365 53.0089C43.0365 54.7966 43.5275 56.4548 44.3674 57.8927C46.0343 60.6909 49.0837 62.5693 52.5596 62.5693C57.8186 62.5693 62.0955 58.2943 62.0955 53.0089C62.1084 49.3686 60.0798 46.2077 57.082 44.6014ZM57.8444 50.8714L52.1073 56.6232C51.9135 56.8175 51.6551 56.9211 51.3708 56.9211C51.0865 56.9211 50.8281 56.8175 50.6343 56.6232L47.3135 53.2939C46.9129 52.8923 46.9129 52.2316 47.3135 51.83C47.7141 51.4284 48.373 51.4284 48.7736 51.83L51.3708 54.4339L56.3714 49.4205C56.7719 49.0189 57.4309 49.0189 57.8315 49.4205C58.245 49.8091 58.245 50.4698 57.8444 50.8714Z" fill="#2B79C2"/>
<path d="M34.0562 17.1248C26.1612 17.1248 19.7523 23.5502 19.7523 31.4654C19.7523 39.3807 26.1612 45.7932 34.0562 45.7932C41.9511 45.7932 48.3601 39.3677 48.3601 31.4525C48.3601 23.5373 41.9511 17.1248 34.0562 17.1248ZM32.273 30.4291H35.8264C37.4803 30.4291 38.8242 32.0095 38.8242 33.9527C38.8242 35.8959 37.4803 37.4763 35.8264 37.4763H35.1416V40.9093C35.1416 41.4793 34.6764 41.9457 34.1079 41.9457C33.5393 41.9457 33.0742 41.4793 33.0742 40.9093V37.4763H30.309C29.7405 37.4763 29.2753 37.01 29.2753 36.44C29.2753 35.87 29.7405 35.4036 30.309 35.4036H35.8393C36.2787 35.4036 36.7697 34.8077 36.7697 33.9527C36.7697 33.0977 36.2787 32.5018 35.8393 32.5018H32.286C30.632 32.5018 29.2882 30.9213 29.2882 28.9782C29.2882 27.035 30.632 25.4545 32.286 25.4545H33.1V22.0216C33.1 21.4516 33.5652 20.9852 34.1337 20.9852C34.7023 20.9852 35.1674 21.4516 35.1674 22.0216V25.4545H37.8034C38.3719 25.4545 38.8371 25.9209 38.8371 26.4909C38.8371 27.0609 38.3719 27.5273 37.8034 27.5273H32.273C31.8337 27.5273 31.3427 28.1232 31.3427 28.9782C31.3427 29.8332 31.8337 30.4291 32.273 30.4291Z" fill="#2B79C2"/>
</svg>
