<svg width="101" height="81" viewBox="0 0 101 81" fill="none" xmlns="http://www.w3.org/2000/svg">
<path d="M57.4327 13.4957C54.7301 11.6554 52.7815 9.70742 51.5477 8.28806C50.3139 9.70742 48.3555 11.6456 45.6432 13.4957C40.5807 16.9413 34.7839 18.8403 28.3701 19.1633V41.9613C28.3701 42.7933 28.4779 43.7624 28.7031 44.8392C28.7031 44.8392 31.4938 62.4002 51.5477 71.4743C51.5477 71.4743 66.1084 65.9632 72.5025 50.5264C73.9909 47.1297 74.6959 44.0854 74.6959 41.9613V19.1633C68.2822 18.8403 62.4853 16.9413 57.4327 13.4957Z" fill="white"/>
<path d="M61.3005 38.5254L65.6579 29.187H59.4596L55.1022 38.5254H61.3005ZM42.0495 29.187L37.6921 38.5254H43.8904L48.2478 29.187H42.0495ZM56.9529 29.187H50.7546L46.3971 38.5254H52.5955L56.9529 29.187ZM30.0152 29.187V38.5254H35.1854L39.5428 29.187H30.0152ZM73.0606 38.5254V29.187H68.1647L63.8073 38.5254H73.0606Z" fill="#E6E6E6"/>
<path d="M51.5379 71.4744C43.6652 68.0679 37.9662 62.5568 34.1866 57.036C32.14 56.3508 30.1719 55.6166 28.2918 54.8629C29.0849 56.3508 29.976 57.8387 30.965 59.2678C34.4607 64.3482 40.7276 71.2688 50.7252 75.3703C50.9896 75.4779 51.2637 75.5367 51.5379 75.5367C51.8121 75.5367 52.0863 75.4877 52.3506 75.3801C59.6261 72.3847 64.9235 67.9113 68.6151 63.7315C66.9798 63.6532 65.2956 63.5259 63.582 63.3595C60.3409 66.5311 56.3458 69.3991 51.5379 71.4744ZM87.9836 43.6646C87.259 43.0185 86.4267 42.3627 85.4866 41.7166C83.5772 40.3756 81.2565 39.0345 78.6029 37.7424V17.4602C78.6029 16.2659 77.6433 15.2968 76.4682 15.2968C70.1524 15.2675 64.4927 13.574 59.6359 10.2654C55.866 7.70079 53.839 4.98931 53.3005 4.216C52.899 3.63847 52.2429 3.28607 51.5379 3.28607C50.8427 3.28607 50.1768 3.62868 49.7754 4.20621C49.2368 4.97952 47.2001 7.691 43.4302 10.2556C38.5636 13.5642 32.894 15.2577 26.588 15.2871C25.413 15.2968 24.4533 16.2659 24.4533 17.4504V26.5147C23.2391 26.593 22.0935 26.7007 21.0164 26.8475C18.5978 27.1706 16.5414 27.66 14.867 28.3061C12.0274 29.4122 10.3725 30.9588 9.94166 32.9068C9.5304 34.7666 10.2942 36.7635 12.1938 38.8583L12.2036 38.8681C12.2428 38.9073 12.2721 38.9464 12.3113 38.9856C14.0837 40.8846 16.7667 42.8227 20.2918 44.7511C20.5268 44.8784 20.7716 45.0154 21.0164 45.1427C22.3285 45.8377 23.7385 46.5229 25.2171 47.1787C25.648 48.8037 26.2551 50.4971 27.009 52.2101C28.752 52.9639 30.5929 53.6882 32.5219 54.3832C31.484 52.5821 30.6419 50.8104 29.9956 49.1463C35.4105 51.2117 41.5403 53.0324 47.9932 54.4615C55.2393 56.0669 62.3286 57.0458 68.664 57.3492C67.6751 58.7686 66.5686 60.1782 65.325 61.5486C66.9994 61.6856 68.6347 61.7835 70.2112 61.8325C70.9162 60.9417 71.5429 60.0803 72.101 59.2678C72.5123 58.6707 72.904 58.0638 73.2858 57.4471C74.6469 57.4373 75.9493 57.3982 77.2124 57.3101C80.4927 57.0947 83.2736 56.6346 85.4964 55.9396C85.986 55.783 86.4462 55.6264 86.8771 55.4502C87.729 55.1076 88.4732 54.7161 89.0999 54.2951C88.7767 53.747 88.3655 53.2184 87.915 52.7192C87.2688 53.1499 86.456 53.5316 85.4964 53.8644C83.3716 54.6084 80.5123 55.1272 77.0851 55.3523C76.2332 55.4111 75.3519 55.4502 74.4413 55.4698C77.0655 50.6929 78.6127 45.7692 78.6127 41.9516V39.9253C81.3544 41.3153 83.6849 42.7444 85.4964 44.1442C85.9273 44.477 86.3189 44.8001 86.691 45.1329C88.2871 46.5523 90.0986 48.6373 89.6874 50.5167C89.6188 50.8104 89.5013 51.0844 89.3349 51.3585C89.8343 51.8969 90.2553 52.4353 90.5882 52.9639C91.0974 52.3472 91.4303 51.6718 91.5968 50.9376C92.0864 48.6862 90.8722 46.239 87.9836 43.6646ZM21.2318 43.0185C21.1632 42.9794 21.0849 42.9402 21.0164 42.9011C17.6969 41.0706 15.1804 39.2107 13.6234 37.4879C13.6136 37.4879 13.6136 37.4977 13.6039 37.4977C12.987 36.8712 12.5855 36.186 12.4386 35.9217C11.8903 34.9722 11.6748 34.101 11.8511 33.3179C12.3211 31.1742 15.67 29.5688 21.0164 28.8151C22.0837 28.6682 23.2294 28.5508 24.4533 28.4725V41.9613C24.4533 42.8423 24.5415 43.7918 24.6981 44.7805C23.4839 44.203 22.3187 43.6156 21.2318 43.0185ZM74.6959 41.9613C74.6959 45.0644 73.1781 50.1741 69.9174 55.4404C63.4155 55.2153 56.0128 54.2266 48.4241 52.543C41.4424 50.9963 34.8524 48.9994 29.1731 46.7187C28.6345 44.8784 28.3701 43.2437 28.3701 41.9613V19.1634C34.7839 18.8404 40.5807 16.9413 45.6431 13.4957C48.3555 11.6554 50.3041 9.70748 51.5477 8.28811C52.7815 9.70748 54.7301 11.6456 57.4327 13.4957C62.4853 16.9413 68.2822 18.8404 74.6959 19.1634V41.9613Z" fill="#005BFF"/>
<path d="M24.424 32.897C20.4974 33.1417 17.2759 33.7486 14.867 34.6883C13.927 35.0505 13.1143 35.4714 12.4386 35.9315C12.7324 36.4405 13.1339 36.9593 13.6235 37.5075C15.6994 36.137 19.4497 35.2071 24.424 34.8743V32.897Z" fill="#06F3FF"/>
<path d="M12.4288 35.9216C12.5757 36.1859 12.987 36.8711 13.5941 37.4976C13.6039 37.4976 13.6039 37.4878 13.6137 37.4878C13.1338 36.9494 12.7324 36.4306 12.4288 35.9216C12.4386 35.9216 12.4386 35.9216 12.4288 35.9216ZM90.5784 52.9638C90.2357 52.4352 89.8147 51.8968 89.3251 51.3584C88.9236 50.9277 88.483 50.4872 87.9836 50.0467C85.751 48.0596 82.4903 46.0138 78.4854 44.0658C78.4462 44.3301 78.27 45.5048 78.1525 46.0921C81.7559 47.8834 84.6739 49.7335 86.6813 51.515C87.0925 51.8772 87.5136 52.2884 87.9052 52.7191C88.3557 53.2085 88.7669 53.7469 89.0901 54.295C89.5895 55.1467 89.8636 56.0472 89.6776 56.8989C89.1096 59.4537 84.3997 61.2646 77.0851 61.7443C74.9505 61.8813 72.6396 61.9107 70.2112 61.8324C68.6347 61.7834 66.9994 61.6855 65.325 61.5485C60.0177 61.108 54.2797 60.227 48.4241 58.9251C42.7741 57.6722 37.3885 56.1255 32.5317 54.3734C30.6027 53.6784 28.7618 52.954 27.0188 52.2003C24.943 51.2997 23.0041 50.36 21.2416 49.4007C14.8083 45.8865 11.3027 42.2549 11.8609 39.7001C11.9294 39.4064 12.0469 39.1225 12.2134 38.8582L12.2036 38.8484C12.1155 38.7603 11.5573 38.1926 10.9502 37.2529C10.4411 37.8696 10.1081 38.545 9.94167 39.2791C9.52061 41.1781 10.3236 43.224 12.3211 45.3579C14.0935 47.2569 16.7765 49.1951 20.3016 51.1235C22.6908 52.4254 25.3836 53.6881 28.3114 54.8628C30.1816 55.6165 32.1498 56.3409 34.2061 57.0359C38.5146 58.4846 43.1658 59.7767 48.003 60.8437C53.369 62.0281 58.6469 62.8798 63.5918 63.3594C65.3152 63.5258 66.9994 63.6531 68.6249 63.7314C70.0643 63.7999 71.4548 63.8391 72.806 63.8391C74.3336 63.8391 75.8122 63.7901 77.2124 63.702C81.2173 63.4377 84.4683 62.8112 86.8771 61.8422C89.5895 60.7458 91.1758 59.2286 91.5968 57.3296C91.9004 55.9396 91.5576 54.481 90.5784 52.9638Z" fill="#06F3FF"/>
<path d="M12.2045 38.8592C12.2045 38.8592 12.1938 38.8592 12.1938 38.8485C12.1938 38.8485 12.2045 38.8485 12.2045 38.8592Z" fill="#06F3FF"/>
</svg>
