<svg width="61" height="80" viewBox="0 0 61 80" fill="none" xmlns="http://www.w3.org/2000/svg">
<path fill-rule="evenodd" clip-rule="evenodd" d="M20.8846 29.2613C23.4375 28.1981 26.2881 27.9005 29.0113 28.4533C31.7343 29.0061 34.2446 30.3243 36.2444 32.2805C38.2015 34.2365 39.5632 36.7454 40.1162 39.4669C40.6694 42.1884 40.414 45.0374 39.3503 47.5888C38.2867 50.1828 36.4997 52.394 34.2022 53.9247C31.9045 55.498 29.1814 56.3485 26.4158 56.3485C23.6503 56.391 20.8846 55.5832 18.5871 54.0523C16.2469 52.5215 14.4173 50.3528 13.3111 47.8013C11.8645 44.3571 11.8645 40.4449 13.2687 37.0005C14.6727 33.5135 17.3957 30.7495 20.8846 29.3038V29.2613Z" fill="#2A2941"/>
<path fill-rule="evenodd" clip-rule="evenodd" d="M20.0763 27.3903C17.1405 28.666 14.6728 30.7497 12.9283 33.4287C11.1837 36.1076 10.2903 39.2544 10.3329 42.4011C10.3754 45.5903 11.354 48.6945 13.1836 51.331C14.9706 53.9674 17.5234 56.0085 20.5018 57.1567C23.48 58.3474 26.7137 58.6024 29.8198 57.9646C32.9257 57.3267 35.7764 55.7534 38.0314 53.4572C40.2439 51.1608 41.7757 48.3118 42.3713 45.1651C42.9669 42.0183 42.6265 38.7866 41.3502 35.8524C40.4992 33.8964 39.3078 32.1105 37.7762 30.6222C36.2444 29.1338 34.4574 27.9432 32.4576 27.1778C30.5005 26.3698 28.3731 25.987 26.2458 26.0296C24.1184 26.1146 22.0334 26.5823 20.0763 27.3903ZM20.8846 29.304C23.4375 28.2408 26.2883 27.9432 29.0113 28.496C31.7343 29.0488 34.2446 30.367 36.2444 32.323C38.2015 34.2792 39.5632 36.7879 40.1162 39.5094C40.6694 42.2309 40.414 45.08 39.3504 47.6315C38.2867 50.2253 36.4997 52.4365 34.2022 53.9674C31.9046 55.5407 29.1814 56.3912 26.4159 56.3912C23.6503 56.4337 20.8846 55.6257 18.5871 54.095C16.2469 52.5642 14.4173 50.3955 13.3537 47.844C11.907 44.3996 11.8645 40.4876 13.3111 37.0006C14.6728 33.5562 17.4383 30.7922 20.8846 29.304Z" fill="#2A2941"/>
<path fill-rule="evenodd" clip-rule="evenodd" d="M16.2043 46.3981C15.1407 43.7616 15.1407 40.8275 16.2469 38.2337C17.3532 35.6397 19.438 33.556 22.0334 32.493" fill="#2A2941"/>
<path d="M16.2043 46.3981C15.1407 43.7616 15.1407 40.8275 16.2469 38.2337C17.3532 35.6397 19.438 33.556 22.0334 32.493" stroke="#2A2941" stroke-width="12.8475" stroke-miterlimit="1.22" stroke-linecap="square"/>
<path fill-rule="evenodd" clip-rule="evenodd" d="M36.1167 37.9358C37.1804 40.5723 37.1804 43.5065 36.0742 46.1004C34.9679 48.6944 32.8831 50.7779 30.2877 51.8836" fill="#2A2941"/>
<path d="M36.1167 37.9358C37.1804 40.5723 37.1804 43.5065 36.0742 46.1004C34.9679 48.6944 32.8831 50.7779 30.2877 51.8836" stroke="#2A2941" stroke-width="12.8475" stroke-miterlimit="1.22" stroke-linecap="square"/>
<path fill-rule="evenodd" clip-rule="evenodd" d="M32.2449 16.1214C32.2449 16.1214 18.6297 21.8621 16.7576 23.2228C15.3109 24.6261 14.0344 26.1995 12.9707 27.9003C11.7795 29.5588 10.5455 31.3022 9.52442 32.8757C7.52459 35.8522 5.90786 37.7232 7.78 38.2336C8.54588 38.4462 11.2689 36.0224 13.992 33.4284L20.1189 27.7728C19.3104 29.006 21.3952 31.685 23.3949 31.3873C24.7566 31.1747 27.3094 29.6863 29.3942 29.176C31.4791 28.6658 34.1171 30.9195 37.6059 28.4958L32.2449 16.1214Z" fill="#2A2941"/>
<path fill-rule="evenodd" clip-rule="evenodd" d="M19.055 31.3877C19.6082 32.068 20.289 32.5784 21.0974 32.9184C21.9059 33.2587 22.7567 33.3862 23.6077 33.3012C24.9692 33.0886 27.6072 31.6002 29.692 31.0899C30.7132 31.0474 31.7343 31.175 32.713 31.4727C33.7767 31.6854 34.8404 31.6854 35.8615 31.4727C36.9252 31.2601 37.9037 30.8349 38.7547 30.2395L40.1162 29.2615L33.266 13.4429L31.3939 14.2508C31.3939 14.2508 17.4383 20.204 15.5236 21.5648C13.8643 23.0956 12.4602 24.839 11.2689 26.71C10.0775 28.411 8.84368 30.1545 7.78 31.7279C6.63118 33.1736 5.6952 34.7469 4.97188 36.4479C4.84418 36.8306 4.80161 37.2559 4.84418 37.6386C4.88675 38.0213 5.01428 38.4041 5.18455 38.7866C5.39722 39.1269 5.69519 39.4671 5.993 39.7221C6.33337 39.9773 6.71631 40.1474 7.09925 40.2325C7.86513 40.4026 8.63085 40.2751 9.31176 39.8923C11.4817 38.4466 13.4814 36.7881 15.3109 34.9171L19.055 31.3877ZM32.2449 16.0368C32.2449 16.0368 18.6297 21.7773 16.7576 23.1381C15.3109 24.5415 14.0344 26.1147 12.9707 27.8157C11.7795 29.4742 10.5455 31.2175 9.52443 32.7909C7.52459 35.7251 5.90786 37.5961 7.78 38.1488C8.54588 38.3614 11.2689 35.9376 13.992 33.3437L20.1189 27.6882C19.3104 28.9212 21.3952 31.6002 23.3949 31.3027C24.7566 31.09 27.3094 29.6017 29.3942 29.0914C31.479 28.5812 34.1171 30.8349 37.6059 28.411L32.2449 16.0368Z" fill="#2A2941"/>
<path fill-rule="evenodd" clip-rule="evenodd" d="M28.7984 23.2655C28.2028 24.0735 27.5221 24.7963 26.7562 25.4768C25.6074 26.2846 22.3738 27.3903 20.5442 28.4533C19.7783 29.0487 19.0976 29.729 18.502 30.4945" fill="#2A2941"/>
<path d="M28.7984 23.2655C28.2028 24.0735 27.5221 24.7963 26.7562 25.4768C25.6074 26.2846 22.3738 27.3903 20.5442 28.4533C19.7783 29.0487 19.0976 29.729 18.502 30.4945" stroke="#2A2941" stroke-width="17.7675" stroke-miterlimit="1.22" stroke-linecap="round"/>
<path fill-rule="evenodd" clip-rule="evenodd" d="M36.7975 11.997L32.7556 13.783L39.4781 29.389L43.5627 27.6455L36.7975 11.997Z" fill="#2A2941"/>
<path fill-rule="evenodd" clip-rule="evenodd" d="M45.3922 28.3683L37.4782 10.0833L30.8834 13.0175L38.7973 31.26L45.3922 28.3683ZM36.7549 11.997L32.713 13.7829L39.3929 29.3463L43.4775 27.603L36.7549 11.997Z" fill="#2A2941"/>
<path fill-rule="evenodd" clip-rule="evenodd" d="M19.055 68.6804C19.055 68.6804 32.6704 62.8972 34.5426 61.579C35.9892 60.1757 37.2655 58.6023 38.3292 56.9015C39.5206 55.243 40.7544 53.4995 41.7757 51.9261C43.7754 48.9921 45.3921 47.0786 43.5201 46.5682C42.7542 46.3556 40.0311 48.7794 37.3081 51.3733C34.2446 54.265 31.1812 57.029 31.1812 57.029C31.9897 55.8383 29.9047 53.1168 27.9051 53.457C26.5436 53.6696 23.9907 55.158 21.9059 55.5406C19.8209 55.9233 17.1831 53.7973 13.694 56.221L19.055 68.6804Z" fill="#2A2941"/>
<path fill-rule="evenodd" clip-rule="evenodd" d="M32.2449 53.3718C31.6919 52.6915 31.011 52.1813 30.2027 51.8411C29.3942 51.5008 28.5432 51.3733 27.6924 51.4583C26.3307 51.6709 23.6929 53.1593 21.6079 53.6695C20.5868 53.712 19.5657 53.5845 18.5871 53.2868C17.5234 53.1168 16.4598 53.1593 15.4386 53.3718C14.4173 53.627 13.4388 54.0523 12.5878 54.69L11.2263 55.6255L18.0765 71.4443L19.9486 70.6363C19.9486 70.6363 33.9042 64.7256 35.8189 63.3649C37.4782 61.834 38.8825 60.0905 40.0737 58.177C41.2651 56.5185 42.499 54.7326 43.5627 53.1593C44.669 51.7134 45.6475 50.1401 46.3708 48.4816C46.5409 47.8864 46.5835 47.2911 46.3708 46.6956C46.158 46.1004 45.8602 45.5901 45.3497 45.2074C44.8391 44.8247 44.286 44.6121 43.6902 44.5696C43.0946 44.5269 42.499 44.6971 41.9458 44.9947C39.7759 46.4406 37.7762 48.1414 35.9466 49.9701L32.2449 53.3718ZM19.0552 68.7228C19.0552 68.7228 32.6704 62.9397 34.5426 61.6214C35.9892 60.2182 37.2656 58.6447 38.3292 56.9438C39.5206 55.2853 40.7544 53.542 41.7757 51.9686C43.7754 49.0346 45.3923 47.1209 43.5201 46.6106C42.7543 46.3981 40.0311 48.8219 37.3081 51.4158C34.2446 54.3073 31.1812 57.0713 31.1812 57.0713C31.9897 55.8382 29.9047 53.1593 27.9051 53.4993C26.5436 53.712 23.9907 55.1578 21.9059 55.583C19.8209 56.0083 17.1831 53.8396 13.694 56.2635L19.0552 68.7228Z" fill="#2A2941"/>
<path fill-rule="evenodd" clip-rule="evenodd" d="M22.4589 61.4939C23.0545 60.6859 23.7353 59.9631 24.4586 59.2827C25.6074 58.4747 28.841 57.3692 30.6706 56.3062C31.4365 55.7107 32.1172 55.0305 32.713 54.265" fill="#2A2941"/>
<path d="M22.4589 61.4939C23.0545 60.6859 23.7353 59.9631 24.4586 59.2827C25.6074 58.4747 28.841 57.3692 30.6706 56.3062C31.4365 55.7107 32.1172 55.0305 32.713 54.265" stroke="#2A2941" stroke-width="17.7675" stroke-miterlimit="1.22" stroke-linecap="round"/>
<path fill-rule="evenodd" clip-rule="evenodd" d="M14.4173 72.8052L18.4594 71.0192L11.7369 55.4132L7.65228 57.1566L14.4173 72.8052Z" fill="#2A2941"/>
<path fill-rule="evenodd" clip-rule="evenodd" d="M5.78015 56.3912L13.694 74.676L20.289 71.742L12.5028 53.4995L5.78015 56.3912ZM14.4173 72.805L18.4594 71.019L11.7369 55.413L7.65229 57.1565L14.4173 72.805Z" fill="#2A2941"/>
<path d="M23.9481 36.1498L24.2459 36.8303C24.6714 36.6601 25.0969 36.575 25.5224 36.575C25.9052 36.575 26.2881 36.6175 26.6711 36.7877C26.9265 36.9153 27.2243 37.0428 27.437 37.2555C27.6072 37.4255 27.7773 37.5957 27.8625 37.8083C27.905 37.8933 27.9476 38.021 27.9476 38.1485C27.9476 38.276 27.905 38.361 27.8625 38.4887C27.7773 38.7012 27.6072 38.8713 27.3944 38.999C27.2243 39.084 26.9691 39.1265 26.7988 39.084C26.5861 39.0415 26.4158 38.914 26.2881 38.7438C26.118 38.5312 25.8628 38.361 25.6074 38.2335C25.3522 38.1485 25.0544 38.106 24.7991 38.1485L26.0329 40.7849C26.501 40.6999 27.0115 40.6147 27.4795 40.5722C27.8625 40.5722 28.2028 40.5722 28.5432 40.6999C28.9262 40.8274 29.224 40.9975 29.5218 41.2527C29.8197 41.5077 30.075 41.848 30.2451 42.2307C30.4579 42.6984 30.5856 43.2087 30.5431 43.7615C30.5005 44.3144 30.3302 44.8246 30.0324 45.2499C29.692 45.7601 29.224 46.1854 28.7135 46.4829L29.4794 48.0564C29.5643 48.2264 29.6495 48.4391 29.6495 48.6516C29.6495 48.7368 29.6069 48.7793 29.5643 48.8644C29.5218 48.9069 29.4794 48.9494 29.3942 48.9919C29.3517 49.0344 29.2665 49.0344 29.224 49.0344C29.139 49.0344 29.0964 49.0344 29.0539 48.9919C28.9262 48.9069 28.7985 48.7367 28.7561 48.6091L27.9476 46.9082C27.4795 47.0784 27.0115 47.2059 26.501 47.2059C26.0755 47.2059 25.65 47.1209 25.267 46.9509C24.9267 46.8232 24.6288 46.6531 24.331 46.3979C24.0758 46.1854 23.9055 45.9302 23.7778 45.6326C23.7354 45.5474 23.6929 45.4199 23.6929 45.2924C23.6929 45.1649 23.7354 45.0797 23.7778 44.9522C23.8204 44.8246 23.863 44.7396 23.9481 44.6545C24.0332 44.5694 24.1182 44.4844 24.2459 44.4419C24.4162 44.3569 24.5863 44.3144 24.7991 44.3144C24.9692 44.3569 25.1395 44.4419 25.2245 44.5694C25.4373 44.7821 25.65 45.0372 25.9054 45.2074C26.0755 45.3349 26.2881 45.4624 26.501 45.5474C26.7988 45.5899 27.054 45.5899 27.3518 45.5474L25.9478 42.6134C25.3947 42.6984 24.8415 42.7835 24.2885 42.7835C23.8204 42.7835 23.3525 42.6134 22.9696 42.4007C22.5015 42.1032 22.1611 41.7204 21.9483 41.2102C21.7782 40.87 21.6505 40.5297 21.6505 40.147C21.6079 39.7643 21.693 39.3817 21.8207 39.0415C22.1185 38.276 22.7141 37.6382 23.4375 37.2555L23.0971 36.6175C22.927 36.2775 22.9696 36.0223 23.2674 35.8948C23.5226 35.7672 23.7354 35.8948 23.9055 36.235L23.9481 36.1498ZM25.1821 40.87L24.0332 38.446C23.7778 38.6587 23.5652 38.9565 23.4375 39.254C23.3525 39.3817 23.3525 39.5517 23.3525 39.7218C23.3525 39.892 23.3949 40.0195 23.4375 40.1895C23.48 40.3172 23.5652 40.4447 23.6929 40.5722C23.8204 40.6573 23.9481 40.7424 24.0758 40.8275C24.4162 40.9125 24.7991 40.9125 25.1395 40.8275L25.1821 40.87ZM26.8839 42.3582L28.2028 45.1222C28.5432 44.8672 28.7985 44.5269 28.9687 44.1442C29.0539 43.9742 29.0964 43.804 29.0964 43.5914C29.0964 43.4214 29.0539 43.2087 28.9687 43.0387C28.8836 42.8685 28.7985 42.741 28.6709 42.6134C28.5432 42.4859 28.3731 42.4007 28.2028 42.3582C27.7773 42.2732 27.3944 42.2732 26.9691 42.3582H26.8839Z" fill="#2A2941" stroke="#2A2941" stroke-width="6.01375" stroke-linejoin="round"/>
<path fill-rule="evenodd" clip-rule="evenodd" d="M21.0123 24.5838C23.5652 23.5208 26.4158 23.2231 29.139 23.7758C31.862 24.3286 34.3723 25.6468 36.3721 27.603C38.3718 29.559 39.6907 32.0679 40.2439 34.7894C40.797 37.5109 40.5417 40.3599 39.4781 42.9113C38.4144 45.5053 36.6274 47.7165 34.3297 49.2473C32.0322 50.8207 29.3091 51.6712 26.501 51.6712C23.7354 51.7137 20.9697 50.9057 18.6722 49.3748C16.332 47.844 14.5025 45.6753 13.4388 43.0814C11.9922 39.6371 11.9922 35.7249 13.3962 32.2805C14.8428 28.8362 17.566 26.0296 21.0123 24.5838Z" fill="#FEC34E"/>
<path fill-rule="evenodd" clip-rule="evenodd" d="M20.2038 22.7126C17.268 23.9884 14.7577 26.0719 13.0559 28.7509C11.3114 31.4298 10.4178 34.5766 10.4604 37.7658C10.503 40.955 11.4815 44.0592 13.3111 46.6957C15.0981 49.3321 17.651 51.3733 20.6294 52.5639C23.6077 53.7546 26.8414 54.0523 29.9899 53.3718C33.0959 52.7341 35.989 51.1606 38.2015 48.8644C40.4566 46.5681 41.9458 43.6766 42.5414 40.5724C43.1372 37.4257 42.7968 34.1938 41.5203 31.2598C39.8184 27.3051 36.6274 24.2009 32.6279 22.585C28.6284 20.9692 24.1608 21.0117 20.2038 22.7126ZM21.0123 24.5836C23.5652 23.5205 26.4159 23.2229 29.1388 23.7757C31.862 24.3284 34.3723 25.6467 36.372 27.6028C38.3718 29.5588 39.6907 32.0678 40.2439 34.7893C40.797 37.5107 40.5417 40.3597 39.4781 42.9112C38.4144 45.5051 36.6274 47.7164 34.3297 49.2471C32.0321 50.8206 29.3091 51.6709 26.501 51.6709C23.7353 51.7135 20.9697 50.9056 18.6723 49.3746C16.332 47.8439 14.5025 45.6752 13.4388 43.0812C11.9922 39.6369 11.9496 35.7248 13.3962 32.2378C14.8429 28.8359 17.566 26.0294 21.0123 24.5836Z" fill="#2A2941"/>
<path fill-rule="evenodd" clip-rule="evenodd" d="M16.3321 41.6781C15.2684 39.0416 15.2684 36.1074 16.3746 33.5135C17.4809 30.9197 19.5657 28.836 22.1611 27.7303" fill="#FEC34E"/>
<path fill-rule="evenodd" clip-rule="evenodd" d="M16.8427 41.4655C16.332 40.2325 16.0768 38.9143 16.0768 37.5535C16.0768 36.2353 16.332 34.8746 16.8427 33.6414C17.3532 32.4081 18.119 31.3026 19.0552 30.3669C19.9912 29.4314 21.14 28.6661 22.3738 28.1559L22.8419 27.9432L22.4589 27.0077L21.9908 27.2202C19.2253 28.3684 17.0554 30.5371 15.9065 33.2586C14.7577 36.0226 14.7577 39.0843 15.9065 41.8483L16.1194 42.316L17.0554 41.9333L16.8427 41.4655Z" fill="#2A2941"/>
<path fill-rule="evenodd" clip-rule="evenodd" d="M36.287 33.2585C37.3507 35.895 37.3507 38.829 36.2444 41.4229C35.1382 44.0169 33.0534 46.1004 30.4579 47.2061" fill="#FEC34E"/>
<path fill-rule="evenodd" clip-rule="evenodd" d="M35.8189 33.4285C36.84 35.9373 36.84 38.7439 35.7763 41.2102C34.7127 43.7191 32.7554 45.6751 30.2451 46.6957L29.7772 46.9084L30.1601 47.8439L30.628 47.6313C33.3937 46.4831 35.5637 44.3144 36.7125 41.5929C37.8611 38.8715 37.8611 35.7672 36.7549 33.0033L36.6274 32.493L35.6912 32.8757L35.904 33.3435L35.8189 33.4285Z" fill="#2A2941"/>
<path fill-rule="evenodd" clip-rule="evenodd" d="M32.2449 11.4014C32.2449 11.4014 18.7146 17.1421 16.8852 18.5028C15.4386 19.906 14.1621 21.4793 13.0984 23.1803C11.907 24.8387 10.6732 26.5822 9.65212 28.1555C7.65228 31.0897 6.03556 33.0032 7.90752 33.5134C8.6734 33.7261 11.3966 31.3022 14.1195 28.7084C17.1831 25.8167 20.2464 23.0103 20.2464 23.0103C19.438 24.2008 21.5229 26.9224 23.5226 26.5822C24.8841 26.3695 27.437 24.8813 29.5219 24.4985C31.6067 24.1158 34.2446 26.242 37.7336 23.8182L32.2449 11.4014Z" fill="white"/>
<path fill-rule="evenodd" clip-rule="evenodd" d="M19.2253 26.7097C19.7785 27.3902 20.4593 27.9005 21.2677 28.2407C22.076 28.5809 22.927 28.7084 23.778 28.6659C25.1395 28.4532 27.7775 26.965 29.8623 26.4547C30.8834 26.4122 31.9046 26.5397 32.8831 26.8374C33.9468 27.0075 35.0105 26.965 36.0318 26.7523C37.0529 26.4972 38.0314 26.072 38.8824 25.434L40.2439 24.4985L33.3937 8.67993L31.5216 9.48791C31.5216 9.48791 17.566 15.4411 15.6513 16.8019C14.0346 18.3328 12.5879 20.0761 11.3966 21.9472C10.2052 23.648 8.97138 25.3915 7.90769 26.965C6.75887 28.4107 5.82272 29.9841 5.09941 31.6424C4.84417 32.3654 4.92931 33.2159 5.31225 33.9387C5.52492 34.2789 5.82272 34.6191 6.1207 34.8743C6.46107 35.1294 6.84401 35.2996 7.22695 35.3846C7.95026 35.5546 8.75854 35.4696 9.43929 35.0869C11.6092 33.6411 13.6091 31.9402 15.4386 30.1117L19.1827 26.6672L19.2253 26.7097ZM32.3726 11.3589C32.3726 11.3589 18.7148 17.1421 16.8427 18.5028C15.3961 19.9061 14.1195 21.4795 13.0559 23.1803C11.8646 24.8388 10.6307 26.5822 9.60956 28.1557C7.60972 31.0897 5.99299 33.0032 7.86513 33.5136C8.63101 33.7261 11.354 31.3024 14.0771 28.7084C17.1405 25.8168 20.204 23.0528 20.204 23.0528C19.3956 24.2435 21.4804 26.965 23.48 26.6247C24.8417 26.4122 27.3946 24.9238 29.4794 24.541C31.5642 24.1585 34.2022 26.2845 37.6911 23.8607L32.1598 11.4439L32.3726 11.3589Z" fill="#2A2941"/>
<path fill-rule="evenodd" clip-rule="evenodd" d="M19.2253 26.1997C19.7359 25.5193 20.3316 24.924 21.0123 24.4137C22.8844 23.3931 26.1181 22.2025 27.2669 21.4371C28.0752 20.7141 28.841 19.9063 29.4794 19.0133C29.5643 18.8431 29.6495 18.6731 29.6069 18.5029C29.5644 18.3329 29.4794 18.1628 29.3517 18.0351C29.2665 17.9926 29.1814 17.9501 29.0964 17.9076C29.0113 17.8651 28.9262 17.8651 28.7985 17.9076C28.7135 17.9076 28.6284 17.9501 28.5432 17.9926C28.4581 18.0351 28.3731 18.1203 28.3306 18.2053C27.7773 18.9706 27.1817 19.6511 26.4584 20.2464C25.3096 21.0118 22.1611 22.1173 20.3316 23.1805C19.5231 23.7758 18.7572 24.4563 18.119 25.2642C17.9913 25.3918 17.9064 25.5193 17.8212 25.6893C17.7787 25.7745 17.7787 25.8595 17.7787 25.9445C17.7787 26.0295 17.7787 26.1145 17.8212 26.1997C17.8638 26.2847 17.9064 26.3698 17.9489 26.4548C18.0339 26.5398 18.0765 26.5823 18.1616 26.625C18.3317 26.6675 18.4594 26.6675 18.6297 26.625C18.7998 26.5823 18.9275 26.4973 19.0126 26.3698C19.0126 26.3273 19.0126 26.2847 19.0126 26.2422H19.2253V26.1997Z" fill="#2A2941"/>
<path fill-rule="evenodd" clip-rule="evenodd" d="M36.9252 7.31918L32.8831 9.10516L39.6056 24.7112L43.6902 22.9677L36.9252 7.31918Z" fill="#4840FF"/>
<path fill-rule="evenodd" clip-rule="evenodd" d="M45.6049 23.7333L37.6911 5.44824L31.0961 8.38225L38.8399 26.5823L45.6049 23.7333ZM36.7975 7.31923L32.7556 9.10521L39.4781 24.7113L43.5627 22.9678L36.7975 7.31923Z" fill="#2A2941"/>
<path fill-rule="evenodd" clip-rule="evenodd" d="M19.1827 63.9604C19.1827 63.9604 32.7979 58.2197 34.6701 56.859C36.1167 55.4982 37.3932 53.925 38.4569 52.224C39.6481 50.5655 40.8821 48.8221 41.9032 47.2488C43.9031 44.3146 45.5198 42.4436 43.6476 41.8909C42.8818 41.6782 40.1588 44.1021 37.4358 46.6959L31.3089 52.394C32.1172 51.1608 30.0324 48.4819 28.0327 48.7796C26.6711 48.9923 24.1184 50.4805 22.0334 50.9908C19.9486 51.501 17.3106 49.2473 13.8217 51.6711L19.2253 64.0879V63.9604H19.1827Z" fill="white"/>
<path fill-rule="evenodd" clip-rule="evenodd" d="M32.2449 48.6945C31.6919 48.0141 31.011 47.5038 30.2027 47.1636C29.3942 46.8235 28.5432 46.6959 27.6924 46.781C26.3307 46.9936 23.6929 48.4818 21.6079 48.9923C20.5868 49.0348 19.5657 48.9071 18.5871 48.6095C17.566 48.4393 16.4598 48.4393 15.4386 48.6945C14.4173 48.9496 13.4388 49.3748 12.5878 50.0128L11.2263 50.9908L18.0765 66.8094L19.9486 66.0016C19.9486 66.0016 33.9042 60.0482 35.8189 58.6875C37.4782 57.1567 38.8825 55.4132 40.0737 53.5422C41.2651 51.8413 42.499 50.0978 43.5627 48.5243C44.7113 47.0786 45.6475 45.5053 46.3708 43.8044C46.4984 43.4216 46.5409 42.9964 46.4983 42.5711C46.456 42.1459 46.3282 41.7632 46.1156 41.4231C45.9027 41.0829 45.6475 40.7427 45.3071 40.5301C44.9668 40.2749 44.5838 40.1049 44.2009 40.0197C43.435 39.8497 42.6691 39.9772 41.9884 40.3599C39.8184 41.8057 37.8188 43.5066 35.9892 45.3351L32.2449 48.6945ZM19.0552 64.0454C19.0552 64.0454 32.6704 58.3047 34.5426 56.944C36.0316 55.5407 37.3507 53.9675 38.4144 52.224C39.6058 50.5655 40.8396 48.8221 41.8607 47.2488C43.8605 44.3146 45.4772 42.4436 43.6051 41.8909C42.8394 41.6781 40.1162 44.1021 37.3933 46.6959L31.3089 52.394C32.1172 51.1608 30.0324 48.4818 28.0328 48.7796C26.6711 48.9923 24.1184 50.4805 22.0334 50.9908C19.9486 51.501 17.3106 49.2473 13.8217 51.6712L19.2253 64.0879L19.0552 64.0454Z" fill="#2A2941"/>
<path fill-rule="evenodd" clip-rule="evenodd" d="M32.2449 49.2048C31.7343 49.8425 31.1387 50.438 30.4579 50.9907C28.5858 52.0113 25.3522 53.202 24.2034 53.9673C23.3951 54.6902 22.6292 55.4982 21.9908 56.3912C21.9485 56.4762 21.9059 56.5612 21.8633 56.6462C21.8207 56.7314 21.8207 56.8164 21.8633 56.9015C21.8633 56.9865 21.9059 57.0715 21.9485 57.1567C21.9908 57.2417 22.076 57.2842 22.1186 57.3692C22.2888 57.4967 22.4589 57.5392 22.6718 57.4967C22.8419 57.4542 23.0121 57.3692 23.1397 57.1992C23.6503 56.4337 24.2885 55.7532 25.0118 55.158C26.1606 54.35 29.3942 53.2445 31.1387 52.224C31.9471 51.6285 32.6704 50.9057 33.3512 50.1403C33.4789 50.0127 33.5639 49.8426 33.649 49.715C33.6916 49.63 33.6916 49.545 33.6916 49.4598C33.6916 49.3748 33.6916 49.2898 33.649 49.2048C33.6064 49.1198 33.5639 49.0346 33.5213 48.9496C33.4363 48.8645 33.3512 48.822 33.266 48.822C33.1385 48.7795 32.9682 48.7795 32.798 48.822C32.6279 48.8645 32.5002 48.9496 32.4152 49.0771V49.2048H32.2449Z" fill="#2A2941"/>
<path fill-rule="evenodd" clip-rule="evenodd" d="M14.545 68.085L18.5871 66.2991L11.8645 50.693L7.77998 52.4365L14.545 68.085Z" fill="#4840FF"/>
<path fill-rule="evenodd" clip-rule="evenodd" d="M5.90785 51.6708L13.8217 69.9558L20.4167 67.0218L12.5454 48.7793L5.90785 51.6708ZM14.545 68.0848L18.5871 66.2989L11.8645 50.6928L7.77999 52.4363L14.545 68.0848Z" fill="#2A2941"/>
<path d="M24.0758 31.4727L24.3736 32.153C24.7991 31.983 25.2245 31.898 25.65 31.898C26.0329 31.8554 26.4158 31.9405 26.7988 32.1105C27.054 32.238 27.352 32.3657 27.5647 32.5782C27.7348 32.7484 27.905 32.9185 27.9902 33.131C28.0327 33.2162 28.0753 33.3437 28.0753 33.4712C28.0753 33.5988 28.0327 33.6839 27.9902 33.8115C27.905 34.024 27.7349 34.1942 27.5221 34.3217C27.3094 34.4067 27.0966 34.4492 26.9265 34.3642C26.7137 34.3217 26.5435 34.1942 26.4158 34.024C26.2457 33.8115 25.9903 33.6414 25.7351 33.5562C25.4799 33.4712 25.1821 33.4287 24.8841 33.4712L26.118 36.1077C26.5861 36.0227 27.0966 35.9377 27.5647 35.8952C27.9476 35.8526 28.288 35.8952 28.6283 36.0227C29.0113 36.1077 29.3517 36.3204 29.6069 36.5754C29.9047 36.8306 30.1601 37.1707 30.3302 37.5534C30.5431 38.0212 30.6706 38.5316 30.628 39.0844C30.5856 39.6371 30.4153 40.1474 30.1175 40.5726C29.7772 41.0829 29.3091 41.5081 28.7986 41.7633L29.5643 43.3366C29.692 43.5068 29.7346 43.7194 29.7772 43.8894C29.7772 43.9746 29.7772 44.0171 29.7346 44.1021C29.692 44.1446 29.6069 44.1871 29.5643 44.2296C29.3942 44.2296 29.2665 44.2296 29.1814 44.2296C29.0539 44.1446 28.9262 43.9746 28.8836 43.8469L28.0753 42.1461C27.6072 42.3161 27.1392 42.4011 26.6287 42.4011C26.2032 42.4011 25.7777 42.3161 25.3947 42.1886C25.0544 42.0609 24.7565 41.8909 24.4587 41.6357C24.2033 41.4231 23.9907 41.1679 23.863 40.8704C23.7778 40.6576 23.7778 40.4451 23.863 40.2324C23.9055 40.1049 23.9481 40.0199 24.0332 39.9349C24.1182 39.8497 24.2033 39.7647 24.331 39.7222C24.5011 39.6796 24.714 39.6796 24.8841 39.7222C25.0544 39.7647 25.2245 39.8497 25.3096 39.9774L25.9903 40.6151C26.1606 40.7427 26.3733 40.8704 26.5861 40.9554C26.8839 40.9979 27.1392 40.9979 27.437 40.9554L26.0329 38.0212C25.4799 38.1064 24.9267 38.1914 24.3736 38.1914C23.9055 38.1914 23.48 38.0212 23.0971 37.8087C22.6292 37.5109 22.2888 37.1282 22.076 36.6179C21.9059 36.2777 21.7782 35.8952 21.7782 35.5549C21.7356 35.1722 21.8207 34.7895 21.9484 34.4492C22.2888 33.6839 22.8418 33.0885 23.5652 32.7058L23.2248 32.068C23.0545 31.7278 23.2248 31.4727 23.3951 31.345C23.5226 30.9625 23.863 31.09 24.0758 31.4727ZM25.3096 36.1502L24.1608 33.7264C23.9055 33.939 23.6929 34.2367 23.5652 34.5344C23.48 34.6619 23.4375 34.832 23.4375 35.0022C23.4375 35.1722 23.48 35.3422 23.5652 35.4699C23.6077 35.5974 23.6929 35.725 23.8204 35.8525C23.9481 35.9377 24.0758 36.0227 24.2033 36.1077C24.5437 36.1927 24.9267 36.1927 25.267 36.1077L25.3096 36.1502ZM27.0115 37.6386L28.3305 40.4026C28.6709 40.1474 28.9262 39.8072 29.0964 39.4244C29.224 39.0844 29.224 38.7016 29.0964 38.3614C29.0539 38.1914 28.9262 38.0637 28.7986 37.9362C28.6709 37.8087 28.5006 37.7236 28.3305 37.6811C27.905 37.5959 27.437 37.5534 27.0115 37.6386Z" fill="#2A2941"/>
</svg>
