<svg width="224" height="63" viewBox="0 0 224 63" fill="none" xmlns="http://www.w3.org/2000/svg">
<path d="M2.58239 34V7.81818H12.6051C14.4972 7.81818 16.0696 8.11648 17.3224 8.71307C18.5838 9.30114 19.5256 10.1065 20.1477 11.1293C20.7784 12.152 21.0938 13.3111 21.0938 14.6065C21.0938 15.6719 20.8892 16.5838 20.4801 17.3423C20.071 18.0923 19.5213 18.7017 18.831 19.1705C18.1406 19.6392 17.3693 19.9759 16.517 20.1804V20.4361C17.446 20.4872 18.3366 20.7727 19.1889 21.2926C20.0497 21.804 20.7528 22.5284 21.2983 23.4659C21.8438 24.4034 22.1165 25.5369 22.1165 26.8665C22.1165 28.2216 21.7884 29.4403 21.1321 30.5227C20.4759 31.5966 19.4872 32.4446 18.1662 33.0668C16.8452 33.6889 15.1832 34 13.1804 34H2.58239ZM7.32528 30.0369H12.4261C14.1477 30.0369 15.3878 29.7088 16.1463 29.0526C16.9134 28.3878 17.2969 27.5355 17.2969 26.4957C17.2969 25.7202 17.1051 25.0213 16.7216 24.3991C16.3381 23.7685 15.7926 23.2741 15.0852 22.9162C14.3778 22.5497 13.5341 22.3665 12.554 22.3665H7.32528V30.0369ZM7.32528 18.9531H12.017C12.8352 18.9531 13.5724 18.804 14.2287 18.5057C14.8849 18.1989 15.4006 17.7685 15.7756 17.2145C16.1591 16.652 16.3509 15.9872 16.3509 15.2202C16.3509 14.206 15.9929 13.3707 15.277 12.7145C14.5696 12.0582 13.517 11.7301 12.1193 11.7301H7.32528V18.9531ZM34.6033 34.3835C32.6431 34.3835 30.9599 33.9531 29.5536 33.0923C28.1559 32.2315 27.0778 31.0426 26.3192 29.5256C25.5692 28 25.1942 26.2443 25.1942 24.2585C25.1942 22.2642 25.5778 20.5043 26.3448 18.9787C27.1119 17.4446 28.1942 16.2514 29.592 15.3991C30.9982 14.5384 32.6602 14.108 34.5778 14.108C36.1715 14.108 37.582 14.402 38.8093 14.9901C40.0451 15.5696 41.0295 16.392 41.7624 17.4574C42.4954 18.5142 42.913 19.75 43.0153 21.1648H38.592C38.413 20.2187 37.9869 19.4304 37.3136 18.7997C36.6488 18.1605 35.7582 17.8409 34.6417 17.8409C33.6957 17.8409 32.8647 18.0966 32.1488 18.608C31.4329 19.1108 30.8746 19.8352 30.4741 20.7812C30.082 21.7273 29.886 22.8608 29.886 24.1818C29.886 25.5199 30.082 26.6705 30.4741 27.6335C30.8661 28.5881 31.4158 29.3253 32.1232 29.8452C32.8391 30.3565 33.6786 30.6122 34.6417 30.6122C35.3235 30.6122 35.9329 30.4844 36.4698 30.2287C37.0153 29.9645 37.4712 29.5852 37.8377 29.0909C38.2042 28.5966 38.4556 27.9957 38.592 27.2884H43.0153C42.9045 28.6776 42.4954 29.9091 41.788 30.983C41.0806 32.0483 40.1175 32.8835 38.8988 33.4886C37.68 34.0852 36.2482 34.3835 34.6033 34.3835ZM55.5085 34.3835C53.5398 34.3835 51.8395 33.9744 50.4077 33.1562C48.9844 32.3295 47.8892 31.1619 47.1222 29.6534C46.3551 28.1364 45.9716 26.3509 45.9716 24.2969C45.9716 22.277 46.3551 20.5043 47.1222 18.9787C47.8977 17.4446 48.9801 16.2514 50.3693 15.3991C51.7585 14.5384 53.3906 14.108 55.2656 14.108C56.4759 14.108 57.6179 14.304 58.6918 14.696C59.7741 15.0795 60.7287 15.6761 61.5554 16.4858C62.3906 17.2955 63.0469 18.3267 63.5241 19.5795C64.0014 20.8239 64.2401 22.3068 64.2401 24.0284V25.4474H48.1449V22.3281H59.804C59.7955 21.4418 59.6037 20.6534 59.2287 19.9631C58.8537 19.2642 58.3295 18.7145 57.6562 18.3139C56.9915 17.9134 56.2159 17.7131 55.3295 17.7131C54.3835 17.7131 53.5526 17.9432 52.8366 18.4034C52.1207 18.8551 51.5625 19.4517 51.1619 20.1932C50.7699 20.9261 50.5696 21.7315 50.5611 22.6094V25.3324C50.5611 26.4744 50.7699 27.4545 51.1875 28.2727C51.6051 29.0824 52.1889 29.7045 52.9389 30.1392C53.6889 30.5653 54.5668 30.7784 55.5724 30.7784C56.2457 30.7784 56.8551 30.6847 57.4006 30.4972C57.946 30.3011 58.419 30.0156 58.8196 29.6406C59.2202 29.2656 59.5227 28.8011 59.7273 28.2472L64.0483 28.733C63.7756 29.875 63.2557 30.8722 62.4886 31.7244C61.7301 32.5682 60.7585 33.2244 59.5739 33.6932C58.3892 34.1534 57.0341 34.3835 55.5085 34.3835ZM68.3597 34V7.81818H78.3825C80.2745 7.81818 81.8469 8.11648 83.0998 8.71307C84.3612 9.30114 85.3029 10.1065 85.9251 11.1293C86.5558 12.152 86.8711 13.3111 86.8711 14.6065C86.8711 15.6719 86.6665 16.5838 86.2575 17.3423C85.8484 18.0923 85.2987 18.7017 84.6083 19.1705C83.918 19.6392 83.1467 19.9759 82.2944 20.1804V20.4361C83.2234 20.4872 84.114 20.7727 84.9663 21.2926C85.8271 21.804 86.5302 22.5284 87.0756 23.4659C87.6211 24.4034 87.8938 25.5369 87.8938 26.8665C87.8938 28.2216 87.5657 29.4403 86.9094 30.5227C86.2532 31.5966 85.2646 32.4446 83.9435 33.0668C82.6225 33.6889 80.9606 34 78.9577 34H68.3597ZM73.1026 30.0369H78.2035C79.9251 30.0369 81.1651 29.7088 81.9237 29.0526C82.6907 28.3878 83.0742 27.5355 83.0742 26.4957C83.0742 25.7202 82.8825 25.0213 82.4989 24.3991C82.1154 23.7685 81.57 23.2741 80.8626 22.9162C80.1552 22.5497 79.3114 22.3665 78.3313 22.3665H73.1026V30.0369ZM73.1026 18.9531H77.7944C78.6126 18.9531 79.3498 18.804 80.006 18.5057C80.6623 18.1989 81.1779 17.7685 81.5529 17.2145C81.9364 16.652 82.1282 15.9872 82.1282 15.2202C82.1282 14.206 81.7702 13.3707 81.0543 12.7145C80.3469 12.0582 79.2944 11.7301 77.8967 11.7301H73.1026V18.9531ZM100.509 34.3835C98.5398 34.3835 96.8395 33.9744 95.4077 33.1562C93.9844 32.3295 92.8892 31.1619 92.1222 29.6534C91.3551 28.1364 90.9716 26.3509 90.9716 24.2969C90.9716 22.277 91.3551 20.5043 92.1222 18.9787C92.8977 17.4446 93.9801 16.2514 95.3693 15.3991C96.7585 14.5384 98.3906 14.108 100.266 14.108C101.476 14.108 102.618 14.304 103.692 14.696C104.774 15.0795 105.729 15.6761 106.555 16.4858C107.391 17.2955 108.047 18.3267 108.524 19.5795C109.001 20.8239 109.24 22.3068 109.24 24.0284V25.4474H93.1449V22.3281H104.804C104.795 21.4418 104.604 20.6534 104.229 19.9631C103.854 19.2642 103.33 18.7145 102.656 18.3139C101.991 17.9134 101.216 17.7131 100.33 17.7131C99.3835 17.7131 98.5526 17.9432 97.8366 18.4034C97.1207 18.8551 96.5625 19.4517 96.1619 20.1932C95.7699 20.9261 95.5696 21.7315 95.5611 22.6094V25.3324C95.5611 26.4744 95.7699 27.4545 96.1875 28.2727C96.6051 29.0824 97.1889 29.7045 97.9389 30.1392C98.6889 30.5653 99.5668 30.7784 100.572 30.7784C101.246 30.7784 101.855 30.6847 102.401 30.4972C102.946 30.3011 103.419 30.0156 103.82 29.6406C104.22 29.2656 104.523 28.8011 104.727 28.2472L109.048 28.733C108.776 29.875 108.256 30.8722 107.489 31.7244C106.73 32.5682 105.759 33.2244 104.574 33.6932C103.389 34.1534 102.034 34.3835 100.509 34.3835ZM142.648 30.2031L142.265 39.625H137.905V34H135.591V30.2031H142.648ZM113.155 14.3636H117.617V30.1903H123.792V14.3636H128.253V30.1903H134.428V14.3636H138.89V34H113.155V14.3636ZM150.769 27.7358L158.631 14.3636H163.387V34H158.913V20.6151L151.076 34H146.308V14.3636H150.769V27.7358ZM170.99 34.2812C170.215 34.2812 169.55 34.0085 168.996 33.4631C168.442 32.9176 168.169 32.2528 168.178 31.4688C168.169 30.7017 168.442 30.0455 168.996 29.5C169.55 28.9545 170.215 28.6818 170.99 28.6818C171.74 28.6818 172.392 28.9545 172.946 29.5C173.509 30.0455 173.794 30.7017 173.803 31.4688C173.794 31.9886 173.658 32.4616 173.394 32.8878C173.138 33.3139 172.797 33.6548 172.371 33.9105C171.953 34.1577 171.493 34.2812 170.99 34.2812ZM178.581 41.3636V14.3636H183.132V17.6108H183.401C183.639 17.1335 183.976 16.6264 184.411 16.0895C184.845 15.544 185.433 15.0795 186.175 14.696C186.916 14.304 187.862 14.108 189.013 14.108C190.53 14.108 191.898 14.4957 193.116 15.2713C194.344 16.0384 195.315 17.1761 196.031 18.6847C196.756 20.1847 197.118 22.0256 197.118 24.2074C197.118 26.3636 196.764 28.196 196.057 29.7045C195.349 31.2131 194.386 32.3636 193.168 33.1562C191.949 33.9489 190.568 34.3452 189.026 34.3452C187.901 34.3452 186.967 34.1577 186.226 33.7827C185.484 33.4077 184.888 32.956 184.436 32.4276C183.993 31.8906 183.648 31.3835 183.401 30.9062H183.209V41.3636H178.581ZM183.119 24.1818C183.119 25.4517 183.298 26.5639 183.656 27.5185C184.023 28.473 184.547 29.2187 185.229 29.7557C185.919 30.2841 186.754 30.5483 187.734 30.5483C188.757 30.5483 189.614 30.2756 190.304 29.7301C190.994 29.1761 191.514 28.4219 191.864 27.4673C192.222 26.5043 192.401 25.4091 192.401 24.1818C192.401 22.9631 192.226 21.8807 191.876 20.9347C191.527 19.9886 191.007 19.2472 190.317 18.7102C189.626 18.1733 188.766 17.9048 187.734 17.9048C186.746 17.9048 185.906 18.1648 185.216 18.6847C184.526 19.2045 184.001 19.9332 183.643 20.8707C183.294 21.8082 183.119 22.9119 183.119 24.1818ZM203.289 41.3636C202.659 41.3636 202.075 41.3125 201.538 41.2102C201.01 41.1165 200.588 41.0057 200.272 40.8778L201.346 37.2727C202.02 37.4688 202.62 37.5625 203.149 37.554C203.677 37.5455 204.142 37.3793 204.542 37.0554C204.951 36.7401 205.297 36.2116 205.578 35.4702L205.974 34.4091L198.853 14.3636H203.762L208.288 29.1932H208.493L213.031 14.3636H217.953L210.091 36.3778C209.724 37.4176 209.238 38.3082 208.633 39.0497C208.028 39.7997 207.287 40.3707 206.409 40.7628C205.539 41.1634 204.5 41.3636 203.289 41.3636Z" fill="#182013"/>
<path d="M7.65412 58.2077C6.59233 58.2077 5.68058 57.9746 4.91886 57.5083C4.16175 57.0421 3.57777 56.3981 3.1669 55.5763C2.76065 54.75 2.55753 53.799 2.55753 52.7234C2.55753 51.6431 2.76527 50.6898 3.18075 49.8635C3.59624 49.0325 4.18253 48.3862 4.93963 47.9245C5.70135 47.4583 6.60156 47.2251 7.64027 47.2251C8.50355 47.2251 9.26758 47.3844 9.93235 47.7029C10.6017 48.0169 11.1349 48.4624 11.532 49.0394C11.929 49.6119 12.1552 50.2812 12.2106 51.0476H9.81463C9.71768 50.5352 9.48686 50.1081 9.12216 49.7665C8.76207 49.4203 8.27965 49.2472 7.67489 49.2472C7.16246 49.2472 6.71236 49.3857 6.32457 49.6626C5.93679 49.935 5.63441 50.3274 5.41744 50.8398C5.20508 51.3523 5.0989 51.9663 5.0989 52.6818C5.0989 53.4066 5.20508 54.0298 5.41744 54.5515C5.62979 55.0685 5.92756 55.4679 6.31072 55.7495C6.69851 56.0265 7.15323 56.165 7.67489 56.165C8.04421 56.165 8.37429 56.0957 8.66513 55.9572C8.96058 55.8141 9.20756 55.6087 9.40607 55.3409C9.60458 55.0732 9.74077 54.7477 9.81463 54.3645H12.2106C12.1506 55.117 11.929 55.7841 11.5458 56.3658C11.1626 56.9428 10.641 57.3952 9.98082 57.723C9.32067 58.0462 8.5451 58.2077 7.65412 58.2077ZM18.9778 58.2077C17.9114 58.2077 16.9904 57.9862 16.2148 57.543C15.4438 57.0952 14.8506 56.4627 14.4351 55.6456C14.0197 54.8239 13.8119 53.8567 13.8119 52.7441C13.8119 51.65 14.0197 50.6898 14.4351 49.8635C14.8552 49.0325 15.4415 48.3862 16.194 47.9245C16.9465 47.4583 17.8306 47.2251 18.8462 47.2251C19.5017 47.2251 20.1203 47.3313 20.702 47.5437C21.2883 47.7514 21.8054 48.0746 22.2532 48.5131C22.7056 48.9517 23.061 49.5103 23.3196 50.1889C23.5781 50.8629 23.7073 51.6662 23.7073 52.5987V53.3674H14.9891V51.6777H21.3045C21.2998 51.1976 21.196 50.7706 20.9929 50.3967C20.7897 50.0181 20.5058 49.7203 20.1411 49.5034C19.781 49.2864 19.3609 49.1779 18.8808 49.1779C18.3684 49.1779 17.9183 49.3026 17.5305 49.5518C17.1427 49.7965 16.8403 50.1197 16.6234 50.5213C16.411 50.9183 16.3025 51.3546 16.2979 51.8301V53.305C16.2979 53.9237 16.411 54.4545 16.6372 54.8977C16.8634 55.3363 17.1796 55.6733 17.5859 55.9087C17.9921 56.1396 18.4676 56.255 19.0124 56.255C19.3771 56.255 19.7072 56.2042 20.0026 56.1026C20.2981 55.9964 20.5543 55.8418 20.7713 55.6387C20.9882 55.4355 21.1521 55.1839 21.2629 54.8839L23.6035 55.147C23.4557 55.7656 23.1741 56.3058 22.7587 56.7674C22.3478 57.2244 21.8215 57.5799 21.1798 57.8338C20.5381 58.0831 19.8041 58.2077 18.9778 58.2077ZM25.828 61.9886V47.3636H28.2932V49.1225H28.4387C28.5679 48.864 28.7503 48.5893 28.9857 48.2985C29.2211 48.003 29.5397 47.7514 29.9413 47.5437C30.343 47.3313 30.8554 47.2251 31.4786 47.2251C32.3003 47.2251 33.0413 47.4352 33.7014 47.8553C34.3662 48.2708 34.8925 48.8871 35.2803 49.7042C35.6727 50.5167 35.8689 51.5138 35.8689 52.6957C35.8689 53.8636 35.6773 54.8562 35.2941 55.6733C34.911 56.4904 34.3893 57.1136 33.7291 57.543C33.069 57.9723 32.3211 58.187 31.4855 58.187C30.8762 58.187 30.3707 58.0854 29.969 57.8823C29.5674 57.6792 29.2442 57.4345 28.9996 57.1483C28.7595 56.8574 28.5725 56.5827 28.4387 56.3242H28.3348V61.9886H25.828ZM28.2863 52.6818C28.2863 53.3697 28.3833 53.9721 28.5771 54.4892C28.7757 55.0062 29.0596 55.4102 29.4289 55.701C29.8028 55.9872 30.2552 56.1303 30.7861 56.1303C31.3401 56.1303 31.8041 55.9826 32.178 55.6871C32.5519 55.3871 32.8335 54.9785 33.0228 54.4615C33.2167 53.9398 33.3137 53.3466 33.3137 52.6818C33.3137 52.0217 33.219 51.4354 33.0297 50.9229C32.8405 50.4105 32.5589 50.0089 32.1849 49.718C31.811 49.4272 31.3447 49.2818 30.7861 49.2818C30.2506 49.2818 29.7959 49.4226 29.422 49.7042C29.048 49.9858 28.7641 50.3805 28.5702 50.8883C28.3809 51.3961 28.2863 51.994 28.2863 52.6818ZM38.0155 58V47.3636H42.482C43.7423 47.3636 44.7371 47.6152 45.4665 48.1184C46.2006 48.6216 46.5676 49.3233 46.5676 50.2235C46.5676 50.8191 46.3598 51.3061 45.9443 51.6847C45.5335 52.0586 44.9726 52.3102 44.2616 52.4395C44.8202 52.4856 45.3096 52.6264 45.7297 52.8619C46.1544 53.0973 46.4868 53.4066 46.7268 53.7898C46.9669 54.1729 47.0869 54.6138 47.0869 55.1124C47.0869 55.6987 46.9323 56.2088 46.623 56.6428C46.3183 57.0721 45.8728 57.4068 45.2865 57.6468C44.7048 57.8823 43.9985 58 43.1675 58H38.0155ZM40.363 56.0265H43.1675C43.6292 56.0265 43.9916 55.918 44.2547 55.701C44.5178 55.4794 44.6494 55.1793 44.6494 54.8008C44.6494 54.3622 44.5178 54.0183 44.2547 53.769C43.9916 53.5151 43.6292 53.3881 43.1675 53.3881H40.363V56.0265ZM40.363 51.7678H42.5305C42.8721 51.7678 43.1652 51.7193 43.4099 51.6223C43.6546 51.5208 43.8415 51.38 43.9708 51.1999C44.1001 51.0153 44.1647 50.796 44.1647 50.5421C44.1647 50.1774 44.0146 49.8912 43.7146 49.6834C43.4191 49.4757 43.0083 49.3718 42.482 49.3718H40.363V51.7678ZM51.5724 54.6069L55.8311 47.3636H58.4071V58H55.9834V50.7498L51.7386 58H49.1557V47.3636H51.5724V54.6069ZM65.6209 58.2077C64.5591 58.2077 63.6474 57.9746 62.8857 57.5083C62.1286 57.0421 61.5446 56.3981 61.1337 55.5763C60.7275 54.75 60.5243 53.799 60.5243 52.7234C60.5243 51.6431 60.7321 50.6898 61.1475 49.8635C61.563 49.0325 62.1493 48.3862 62.9064 47.9245C63.6681 47.4583 64.5684 47.2251 65.6071 47.2251C66.4703 47.2251 67.2344 47.3844 67.8991 47.7029C68.5685 48.0169 69.1017 48.4624 69.4988 49.0394C69.8958 49.6119 70.122 50.2812 70.1774 51.0476H67.7814C67.6845 50.5352 67.4537 50.1081 67.089 49.7665C66.7289 49.4203 66.2464 49.2472 65.6417 49.2472C65.1293 49.2472 64.6792 49.3857 64.2914 49.6626C63.9036 49.935 63.6012 50.3274 63.3842 50.8398C63.1719 51.3523 63.0657 51.9663 63.0657 52.6818C63.0657 53.4066 63.1719 54.0298 63.3842 54.5515C63.5966 55.0685 63.8944 55.4679 64.2775 55.7495C64.6653 56.0265 65.12 56.165 65.6417 56.165C66.011 56.165 66.3411 56.0957 66.6319 55.9572C66.9274 55.8141 67.1744 55.6087 67.3729 55.3409C67.5714 55.0732 67.7076 54.7477 67.7814 54.3645H70.1774C70.1174 55.117 69.8958 55.7841 69.5126 56.3658C69.1294 56.9428 68.6078 57.3952 67.9476 57.723C67.2875 58.0462 66.5119 58.2077 65.6209 58.2077ZM80.1334 58.2147C79.4594 58.2147 78.8523 58.0946 78.3122 57.8546C77.7767 57.6099 77.352 57.2498 77.038 56.7743C76.7287 56.2988 76.5741 55.7125 76.5741 55.0154C76.5741 54.4153 76.6849 53.919 76.9065 53.5266C77.1281 53.1342 77.4304 52.8203 77.8136 52.5849C78.1968 52.3494 78.6284 52.1717 79.1085 52.0517C79.5933 51.927 80.0941 51.837 80.6112 51.7816C81.2344 51.717 81.7399 51.6593 82.1277 51.6085C82.5155 51.5531 82.7971 51.47 82.9725 51.3592C83.1526 51.2438 83.2426 51.0661 83.2426 50.826V50.7844C83.2426 50.2628 83.0879 49.8588 82.7786 49.5726C82.4693 49.2864 82.0238 49.1433 81.4422 49.1433C80.8282 49.1433 80.3411 49.2772 79.981 49.5449C79.6256 49.8127 79.3855 50.1289 79.2609 50.4936L76.9203 50.1612C77.105 49.5149 77.4097 48.9748 77.8344 48.5408C78.2591 48.1023 78.7785 47.7745 79.3924 47.5575C80.0064 47.3359 80.6851 47.2251 81.4283 47.2251C81.9407 47.2251 82.4509 47.2852 82.9587 47.4052C83.4665 47.5252 83.9304 47.7237 84.3505 48.0007C84.7706 48.2731 85.1076 48.6447 85.3616 49.1156C85.6201 49.5865 85.7493 50.1751 85.7493 50.8814V58H83.3395V56.5389H83.2564C83.1041 56.8343 82.8894 57.1113 82.6124 57.3699C82.3401 57.6238 81.9961 57.8292 81.5807 57.9862C81.1698 58.1385 80.6874 58.2147 80.1334 58.2147ZM80.7843 56.3727C81.2875 56.3727 81.7238 56.2734 82.0931 56.0749C82.4624 55.8718 82.7463 55.604 82.9448 55.2717C83.1479 54.9393 83.2495 54.5769 83.2495 54.1845V52.9311C83.171 52.9957 83.0372 53.0558 82.8479 53.1112C82.6632 53.1665 82.4555 53.215 82.2247 53.2566C81.9938 53.2981 81.7653 53.335 81.5391 53.3674C81.3129 53.3997 81.1167 53.4274 80.9505 53.4505C80.5766 53.5012 80.2419 53.5843 79.9464 53.6998C79.651 53.8152 79.4178 53.9767 79.247 54.1845C79.0762 54.3876 78.9908 54.6507 78.9908 54.9739C78.9908 55.4355 79.1593 55.7841 79.4963 56.0195C79.8333 56.255 80.2627 56.3727 80.7843 56.3727ZM88.2699 61.9886V47.3636H90.7351V49.1225H90.8805C91.0098 48.864 91.1922 48.5893 91.4276 48.2985C91.663 48.003 91.9816 47.7514 92.3832 47.5437C92.7848 47.3313 93.2973 47.2251 93.9205 47.2251C94.7422 47.2251 95.4832 47.4352 96.1433 47.8553C96.8081 48.2708 97.3344 48.8871 97.7222 49.7042C98.1146 50.5167 98.3108 51.5138 98.3108 52.6957C98.3108 53.8636 98.1192 54.8562 97.736 55.6733C97.3529 56.4904 96.8312 57.1136 96.171 57.543C95.5109 57.9723 94.763 58.187 93.9274 58.187C93.318 58.187 92.8125 58.0854 92.4109 57.8823C92.0093 57.6792 91.6861 57.4345 91.4415 57.1483C91.2014 56.8574 91.0144 56.5827 90.8805 56.3242H90.7767V61.9886H88.2699ZM90.7282 52.6818C90.7282 53.3697 90.8252 53.9721 91.019 54.4892C91.2176 55.0062 91.5015 55.4102 91.8708 55.701C92.2447 55.9872 92.6971 56.1303 93.228 56.1303C93.782 56.1303 94.246 55.9826 94.6199 55.6871C94.9938 55.3871 95.2754 54.9785 95.4647 54.4615C95.6586 53.9398 95.7555 53.3466 95.7555 52.6818C95.7555 52.0217 95.6609 51.4354 95.4716 50.9229C95.2824 50.4105 95.0008 50.0089 94.6268 49.718C94.2529 49.4272 93.7866 49.2818 93.228 49.2818C92.6925 49.2818 92.2378 49.4226 91.8639 49.7042C91.4899 49.9858 91.206 50.3805 91.0121 50.8883C90.8228 51.3961 90.7282 51.994 90.7282 52.6818ZM105.166 58.2077C104.1 58.2077 103.179 57.9862 102.403 57.543C101.632 57.0952 101.039 56.4627 100.624 55.6456C100.208 54.8239 100 53.8567 100 52.7441C100 51.65 100.208 50.6898 100.624 49.8635C101.044 49.0325 101.63 48.3862 102.383 47.9245C103.135 47.4583 104.019 47.2251 105.035 47.2251C105.69 47.2251 106.309 47.3313 106.89 47.5437C107.477 47.7514 107.994 48.0746 108.442 48.5131C108.894 48.9517 109.25 49.5103 109.508 50.1889C109.767 50.8629 109.896 51.6662 109.896 52.5987V53.3674H101.178V51.6777H107.493C107.488 51.1976 107.384 50.7706 107.181 50.3967C106.978 50.0181 106.694 49.7203 106.33 49.5034C105.97 49.2864 105.549 49.1779 105.069 49.1779C104.557 49.1779 104.107 49.3026 103.719 49.5518C103.331 49.7965 103.029 50.1197 102.812 50.5213C102.599 50.9183 102.491 51.3546 102.486 51.8301V53.305C102.486 53.9237 102.599 54.4545 102.826 54.8977C103.052 55.3363 103.368 55.6733 103.774 55.9087C104.181 56.1396 104.656 56.255 105.201 56.255C105.566 56.255 105.896 56.2042 106.191 56.1026C106.487 55.9964 106.743 55.8418 106.96 55.6387C107.177 55.4355 107.341 55.1839 107.451 54.8839L109.792 55.147C109.644 55.7656 109.363 56.3058 108.947 56.7674C108.536 57.2244 108.01 57.5799 107.368 57.8338C106.727 58.0831 105.993 58.2077 105.166 58.2077ZM119.322 51.6431V53.6998H113.658V51.6431H119.322ZM114.433 47.3636V58H112.017V47.3636H114.433ZM120.963 47.3636V58H118.553V47.3636H120.963ZM122.558 61.0884V55.9364H123.402C123.629 55.761 123.818 55.5233 123.97 55.2232C124.123 54.9185 124.247 54.5607 124.344 54.1499C124.446 53.7344 124.529 53.2704 124.594 52.758C124.658 52.2409 124.716 51.6847 124.767 51.0891L125.071 47.3636H132.758V55.9364H134.406V61.0884H131.982V58H125.023V61.0884H122.558ZM125.978 55.9364H130.362V49.3857H127.246L127.08 51.0891C126.987 52.2156 126.865 53.1804 126.712 53.9837C126.56 54.7869 126.315 55.4379 125.978 55.9364ZM137.974 50.826H141.111C142.468 50.826 143.518 51.1561 144.261 51.8162C145.005 52.4764 145.379 53.342 145.383 54.413C145.379 55.1101 145.208 55.7287 144.871 56.2688C144.538 56.8089 144.054 57.2337 143.417 57.543C142.784 57.8477 142.016 58 141.111 58H136.277V47.3636H138.694V55.9434H141.111C141.655 55.9434 142.103 55.8049 142.454 55.5279C142.805 55.2463 142.98 54.8862 142.98 54.4476C142.98 53.986 142.805 53.6097 142.454 53.3189C142.103 53.0281 141.655 52.8826 141.111 52.8826H137.974V50.826ZM146.706 58V47.3636H149.213V58H146.706ZM156.634 58V47.3636H161.101C162.361 47.3636 163.356 47.6152 164.085 48.1184C164.819 48.6216 165.186 49.3233 165.186 50.2235C165.186 50.8191 164.978 51.3061 164.563 51.6847C164.152 52.0586 163.591 52.3102 162.88 52.4395C163.439 52.4856 163.928 52.6264 164.348 52.8619C164.773 53.0973 165.105 53.4066 165.345 53.7898C165.586 54.1729 165.706 54.6138 165.706 55.1124C165.706 55.6987 165.551 56.2088 165.242 56.6428C164.937 57.0721 164.491 57.4068 163.905 57.6468C163.323 57.8823 162.617 58 161.786 58H156.634ZM158.982 56.0265H161.786C162.248 56.0265 162.61 55.918 162.873 55.701C163.136 55.4794 163.268 55.1793 163.268 54.8008C163.268 54.3622 163.136 54.0183 162.873 53.769C162.61 53.5151 162.248 53.3881 161.786 53.3881H158.982V56.0265ZM158.982 51.7678H161.149C161.491 51.7678 161.784 51.7193 162.029 51.6223C162.273 51.5208 162.46 51.38 162.589 51.1999C162.719 51.0153 162.783 50.796 162.783 50.5421C162.783 50.1774 162.633 49.8912 162.333 49.6834C162.038 49.4757 161.627 49.3718 161.101 49.3718H158.982V51.7678ZM172.483 58.2077C171.417 58.2077 170.496 57.9862 169.72 57.543C168.949 57.0952 168.356 56.4627 167.941 55.6456C167.525 54.8239 167.317 53.8567 167.317 52.7441C167.317 51.65 167.525 50.6898 167.941 49.8635C168.361 49.0325 168.947 48.3862 169.699 47.9245C170.452 47.4583 171.336 47.2251 172.352 47.2251C173.007 47.2251 173.626 47.3313 174.207 47.5437C174.794 47.7514 175.311 48.0746 175.759 48.5131C176.211 48.9517 176.566 49.5103 176.825 50.1889C177.083 50.8629 177.213 51.6662 177.213 52.5987V53.3674H168.494V51.6777H174.81C174.805 51.1976 174.701 50.7706 174.498 50.3967C174.295 50.0181 174.011 49.7203 173.646 49.5034C173.286 49.2864 172.866 49.1779 172.386 49.1779C171.874 49.1779 171.424 49.3026 171.036 49.5518C170.648 49.7965 170.346 50.1197 170.129 50.5213C169.916 50.9183 169.808 51.3546 169.803 51.8301V53.305C169.803 53.9237 169.916 54.4545 170.143 54.8977C170.369 55.3363 170.685 55.6733 171.091 55.9087C171.498 56.1396 171.973 56.255 172.518 56.255C172.882 56.255 173.213 56.2042 173.508 56.1026C173.803 55.9964 174.06 55.8418 174.277 55.6387C174.494 55.4355 174.657 55.1839 174.768 54.8839L177.109 55.147C176.961 55.7656 176.68 56.3058 176.264 56.7674C175.853 57.2244 175.327 57.5799 174.685 57.8338C174.044 58.0831 173.309 58.2077 172.483 58.2077ZM195.309 55.9434L195.101 61.0469H192.74V58H191.486V55.9434H195.309ZM179.333 47.3636H181.75V55.9364H185.095V47.3636H187.511V55.9364H190.856V47.3636H193.273V58H179.333V47.3636ZM201.885 58.2077C200.819 58.2077 199.898 57.9862 199.123 57.543C198.352 57.0952 197.758 56.4627 197.343 55.6456C196.927 54.8239 196.72 53.8567 196.72 52.7441C196.72 51.65 196.927 50.6898 197.343 49.8635C197.763 49.0325 198.349 48.3862 199.102 47.9245C199.854 47.4583 200.738 47.2251 201.754 47.2251C202.409 47.2251 203.028 47.3313 203.61 47.5437C204.196 47.7514 204.713 48.0746 205.161 48.5131C205.613 48.9517 205.969 49.5103 206.227 50.1889C206.486 50.8629 206.615 51.6662 206.615 52.5987V53.3674H197.897V51.6777H204.212C204.208 51.1976 204.104 50.7706 203.901 50.3967C203.697 50.0181 203.414 49.7203 203.049 49.5034C202.689 49.2864 202.269 49.1779 201.789 49.1779C201.276 49.1779 200.826 49.3026 200.438 49.5518C200.05 49.7965 199.748 50.1197 199.531 50.5213C199.319 50.9183 199.21 51.3546 199.206 51.8301V53.305C199.206 53.9237 199.319 54.4545 199.545 54.8977C199.771 55.3363 200.087 55.6733 200.494 55.9087C200.9 56.1396 201.375 56.255 201.92 56.255C202.285 56.255 202.615 56.2042 202.91 56.1026C203.206 55.9964 203.462 55.8418 203.679 55.6387C203.896 55.4355 204.06 55.1839 204.171 54.8839L206.511 55.147C206.363 55.7656 206.082 56.3058 205.666 56.7674C205.256 57.2244 204.729 57.5799 204.088 57.8338C203.446 58.0831 202.712 58.2077 201.885 58.2077ZM211.152 54.6069L215.411 47.3636H217.987V58H215.564V50.7498L211.319 58H208.736V47.3636H211.152V54.6069ZM214.726 43.7074H216.602C216.602 44.5153 216.309 45.1708 215.723 45.674C215.141 46.1726 214.352 46.4219 213.355 46.4219C212.367 46.4219 211.58 46.1726 210.993 45.674C210.412 45.1708 210.123 44.5153 210.128 43.7074H211.99C211.99 44.0398 212.092 44.3375 212.295 44.6007C212.503 44.8592 212.856 44.9885 213.355 44.9885C213.844 44.9885 214.192 44.8592 214.4 44.6007C214.613 44.3422 214.721 44.0444 214.726 43.7074Z" fill="#182013"/>
</svg>
