<svg width="35" height="35" viewBox="0 0 35 35" fill="none" xmlns="http://www.w3.org/2000/svg">
<path d="M33 10.1377L29.9995 23.563C28.6819 27.7307 27.7614 29 25 29H9C6.23859 29 5.14117 28.0318 4.00046 23.563L1 10.1377H6.68095C6.79214 8.98232 7.29035 7.91556 8.07669 7.1493C8.86303 6.38304 9.87999 5.97325 10.9257 6.00136H23.0744C24.1199 5.97374 25.1367 6.38365 25.9229 7.14981C26.7092 7.91598 27.2074 8.98251 27.319 10.1377H33ZM5.99954 23.6299C6.05224 24.4881 6.38703 25.2949 6.94026 25.8968C7.49348 26.4987 8.22654 26.8537 9 26.8943H25C26.6565 26.8943 27.6014 25.629 28.0005 23.6299L30.4381 12.2477H3.56376L5.99954 23.6299ZM23.0762 8.05487H10.9276C10.3524 8.00009 9.77927 8.18328 9.31824 8.56924C8.85722 8.9552 8.5408 9.51672 8.42969 10.146H25.5742C25.4626 9.51655 25.1458 8.95504 24.6845 8.56911C24.2231 8.18319 23.6516 8.00002 23.0762 8.05487ZM23.5581 18.5107H10.4419V16.4195H23.5581V18.5107ZM21.6758 22.6931H12.3243V20.6019H21.6758V22.6931Z" fill="black"/>
</svg>
