<svg width="39" height="39" viewBox="0 0 39 39" fill="none" xmlns="http://www.w3.org/2000/svg">
<path fill-rule="evenodd" clip-rule="evenodd" d="M17.1116 5.65087C10.782 5.65087 5.65093 10.782 5.65093 17.1115C5.65093 23.4411 10.782 28.5722 17.1116 28.5722C23.4411 28.5722 28.5723 23.4411 28.5723 17.1115C28.5723 10.782 23.4411 5.65087 17.1116 5.65087ZM2.78577 17.1115C2.78577 9.1996 9.19967 2.78571 17.1116 2.78571C25.0236 2.78571 31.4374 9.1996 31.4374 17.1115C31.4374 25.0235 25.0236 31.4373 17.1116 31.4373C9.19967 31.4373 2.78577 25.0235 2.78577 17.1115Z" fill="#8B8B8B"/>
<path d="M27.688 25.5571L35.7726 33.6417C36.3615 34.2306 36.3615 35.1854 35.7726 35.7743C35.1837 36.3632 34.2289 36.3632 33.64 35.7743L25.5554 27.6897L27.688 25.5571Z" fill="#8B8B8B"/>
</svg>
