<svg width="45" height="45" viewBox="0 0 45 45" fill="none" xmlns="http://www.w3.org/2000/svg">
<path fill-rule="evenodd" clip-rule="evenodd" d="M19.7441 6.52024C12.4408 6.52024 6.52024 12.4408 6.52024 19.7441C6.52024 27.0474 12.4408 32.968 19.7441 32.968C27.0474 32.968 32.968 27.0474 32.968 19.7441C32.968 12.4408 27.0474 6.52024 19.7441 6.52024ZM3.21429 19.7441C3.21429 10.6149 10.6149 3.21429 19.7441 3.21429C28.8733 3.21429 36.2739 10.6149 36.2739 19.7441C36.2739 28.8733 28.8733 36.2739 19.7441 36.2739C10.6149 36.2739 3.21429 28.8733 3.21429 19.7441Z" fill="white"/>
<path d="M31.9477 29.489L41.2761 38.8173C41.9556 39.4968 41.9556 40.5985 41.2761 41.278C40.5966 41.9575 39.4949 41.9575 38.8154 41.278L29.4871 31.9497L31.9477 29.489Z" fill="white"/>
</svg>
