<svg width="1440" height="434" viewBox="0 0 1440 434" fill="none" xmlns="http://www.w3.org/2000/svg">
<path d="M0 0C0 0 218.568 75.0241 360 75.0241C501.432 75.0241 578.568 0 720 0C861.432 0 938.568 75.0241 1080 75.0241C1221.43 75.0241 1440 0 1440 0V377.969C1440 377.969 1221.06 434 1080 434C938.94 434 861.06 377.969 720 377.969C578.94 377.969 501.06 434 360 434C218.94 434 0 377.969 0 377.969V0Z" fill="url(#paint0_linear_14_8)"/>
<path d="M0 26.04C0 26.04 218.568 92.7042 360 92.7042C501.432 92.7042 578.568 26.04 720 26.04C861.432 26.04 938.568 92.7042 1080 92.7042C1221.43 92.7042 1440 26.04 1440 26.04V361.893C1440 361.893 1221.06 411.68 1080 411.68C938.94 411.68 861.06 361.893 720 361.893C578.94 361.893 501.06 411.68 360 411.68C218.94 411.68 0 361.893 0 361.893V26.04Z" fill="url(#paint1_linear_14_8)"/>
<defs>
<linearGradient id="paint0_linear_14_8" x1="0" y1="217" x2="1440" y2="217" gradientUnits="userSpaceOnUse">
<stop stop-color="#30933A"/>
<stop offset="0.515" stop-color="#47B94B"/>
<stop offset="1" stop-color="#30933A"/>
</linearGradient>
<linearGradient id="paint1_linear_14_8" x1="0" y1="193.966" x2="1440" y2="193.966" gradientUnits="userSpaceOnUse">
<stop stop-color="#48B94B"/>
<stop offset="0.5" stop-color="#30933A"/>
<stop offset="1" stop-color="#48B94B"/>
</linearGradient>
</defs>
</svg>
