<svg width="61" height="45" viewBox="0 0 61 45" fill="none" xmlns="http://www.w3.org/2000/svg">
<g clip-path="url(#clip0_24_169)">
<path d="M60.8652 8.11108H0.393265V44.7401H60.8652V8.11108Z" fill="white"/>
<path d="M60.8652 0.532654H0.393265V8.12369H60.8652V0.532654Z" fill="black"/>
<path d="M5.61274 5.38537C6.19511 5.38537 6.66722 4.91205 6.66722 4.32818C6.66722 3.74432 6.19511 3.271 5.61274 3.271C5.03036 3.271 4.55826 3.74432 4.55826 4.32818C4.55826 4.91205 5.03036 5.38537 5.61274 5.38537Z" fill="#00C454"/>
<path d="M8.77492 5.38537C9.3573 5.38537 9.8294 4.91205 9.8294 4.32818C9.8294 3.74432 9.3573 3.271 8.77492 3.271C8.19255 3.271 7.72044 3.74432 7.72044 4.32818C7.72044 4.91205 8.19255 5.38537 8.77492 5.38537Z" fill="white"/>
<path d="M11.9333 5.38537C12.5157 5.38537 12.9878 4.91205 12.9878 4.32818C12.9878 3.74432 12.5157 3.271 11.9333 3.271C11.351 3.271 10.8788 3.74432 10.8788 4.32818C10.8788 4.91205 11.351 5.38537 11.9333 5.38537Z" fill="#666666"/>
<path d="M53.3062 6.18488H20.6022L22.8611 2.47272H55.5663L53.3062 6.18488Z" fill="#666666"/>
<path d="M25.2397 3.49963L25.4589 4.34336C25.5067 4.52777 25.5508 4.69955 25.5823 4.87132H25.5937C25.6302 4.70334 25.6856 4.52524 25.7398 4.34715L26.0107 3.49963H26.2639L26.5196 4.32947C26.5814 4.52777 26.6292 4.70334 26.667 4.87132H26.6771C26.7048 4.70334 26.7502 4.52903 26.8044 4.33326L27.0412 3.49963H27.3385L26.8044 5.1593H26.531L26.2778 4.36736C26.2198 4.18169 26.1719 4.01749 26.1304 3.82045H26.1241C26.0825 4.02002 26.0321 4.19179 25.9729 4.36989L25.7058 5.1593H25.4324L24.9335 3.49963H25.2397Z" fill="white"/>
<path d="M27.7946 3.49963L28.0138 4.34336C28.0617 4.52777 28.1058 4.69955 28.1373 4.87132H28.1473C28.1851 4.70334 28.2393 4.52524 28.2947 4.34715L28.5644 3.49963H28.8176L29.0746 4.32947C29.1363 4.52777 29.1842 4.70334 29.2207 4.87132H29.2321C29.2585 4.70334 29.3039 4.52903 29.3593 4.33326L29.5962 3.49963H29.8935L29.3593 5.1593H29.0847L28.8314 4.36736C28.7735 4.18169 28.7256 4.01749 28.6853 3.82045H28.6777C28.6374 4.02002 28.5858 4.19179 28.5278 4.36989L28.2607 5.1593H27.9861L27.4872 3.49963H27.7946Z" fill="white"/>
<path d="M30.3495 3.49963L30.5687 4.34336C30.6166 4.52777 30.6607 4.69955 30.6922 4.87132H30.7023C30.7401 4.70334 30.7943 4.52524 30.8497 4.34715L31.1193 3.49963H31.3725L31.6295 4.32947C31.6913 4.52777 31.7391 4.70334 31.7757 4.87132H31.787C31.8135 4.70334 31.8588 4.52903 31.9142 4.33326L32.1511 3.49963H32.4484L31.9142 5.1593H31.6396L31.3851 4.36736C31.3272 4.18169 31.2793 4.01749 31.239 3.82045H31.2314C31.1911 4.02002 31.1395 4.19179 31.0815 4.36989L30.8144 5.1593H30.5398L30.0409 3.49963H30.3495Z" fill="white"/>
<path d="M0.393265 41.0594H10.1796L13.8508 44.74H0.393265V41.0594Z" fill="#666666"/>
<path d="M60.8652 41.0594H51.0788L47.4077 44.74H60.8652V41.0594Z" fill="#666666"/>
<path d="M45.1185 35.723H16.1399C15.5994 35.723 15.1572 35.2797 15.1572 34.7378V17.3757C15.1572 16.8338 15.5994 16.3905 16.1399 16.3905H45.1173C45.6577 16.3905 46.0999 16.8338 46.0999 17.3757V34.7391C46.0999 35.2797 45.659 35.723 45.1185 35.723Z" fill="#00C454"/>
<path d="M46.1012 19.4698H15.1585V24.5726H46.1012V19.4698Z" fill="black"/>
<path d="M31.792 27.9665H19.0803V28.8165H31.792V27.9665Z" fill="black"/>
<path d="M26.7149 30.5179H19.0803V31.3679H26.7149V30.5179Z" fill="black"/>
</g>
<rect x="0.5" y="0.5" width="60" height="44" stroke="black"/>
<defs>
<clipPath id="clip0_24_169">
<rect width="61" height="45" fill="white"/>
</clipPath>
</defs>
</svg>
