<svg width="101" height="101" viewBox="0 0 101 101" fill="none" xmlns="http://www.w3.org/2000/svg">
<path d="M86.1064 19.0361L81.3721 17.7539L86.1064 16.373L87.3887 11.6387L88.6709 16.373L93.4053 17.7539L88.6709 19.0361L87.3887 23.7705L86.1064 19.0361ZM90.8408 24.165L88.9668 23.7705L90.8408 23.376L91.2354 21.502L91.6299 23.376L93.5039 23.7705L91.6299 24.165L91.2354 26.0391L90.8408 24.165Z" fill="#FDCD60"/>
<path d="M30.8721 64.9004L28.8008 64.4072L30.8721 63.9141L31.2666 61.8428L31.7598 63.9141L33.8311 64.4072L31.7598 64.9004L31.2666 66.9717L30.8721 64.9004Z" fill="#FDCD60"/>
<path d="M12.2305 25.7432C12.2305 25.9786 12.324 26.2044 12.4905 26.3709C12.6569 26.5373 12.8827 26.6309 13.1182 26.6309C13.3536 26.6309 13.5794 26.5373 13.7459 26.3709C13.9123 26.2044 14.0059 25.9786 14.0059 25.7432C14.0059 25.5077 13.9123 25.2819 13.7459 25.1155C13.5794 24.949 13.3536 24.8555 13.1182 24.8555C12.8827 24.8555 12.6569 24.949 12.4905 25.1155C12.324 25.2819 12.2305 25.5077 12.2305 25.7432Z" fill="#5546CB"/>
<path d="M66.3799 61.1523L63.6182 60.5605L66.3799 59.9688L66.873 57.207L67.5635 59.9688L70.3252 60.5605L67.5635 61.1523L66.873 63.9141L66.3799 61.1523Z" fill="#FDCD60"/>
<path d="M80.6816 67.958C80.1939 67.958 79.7172 67.8134 79.3117 67.5424C78.9062 67.2715 78.5902 66.8864 78.4035 66.4358C78.2169 65.9852 78.1681 65.4895 78.2632 65.0111C78.3583 64.5328 78.5932 64.0934 78.938 63.7486C79.2829 63.4037 79.7223 63.1689 80.2006 63.0737C80.6789 62.9786 81.1747 63.0274 81.6253 63.2141C82.0758 63.4007 82.4609 63.7167 82.7319 64.1223C83.0028 64.5278 83.1475 65.0045 83.1475 65.4922C83.1475 66.1462 82.8877 66.7734 82.4252 67.2358C81.9628 67.6982 81.3356 67.958 80.6816 67.958ZM80.6816 64.4072C80.4866 64.4072 80.2959 64.4651 80.1337 64.5735C79.9715 64.6818 79.8451 64.8359 79.7704 65.0161C79.6957 65.1963 79.6762 65.3947 79.7143 65.586C79.7523 65.7773 79.8463 65.9531 79.9842 66.091C80.1221 66.2289 80.2979 66.3229 80.4892 66.3609C80.6805 66.399 80.8789 66.3795 81.0591 66.3048C81.2393 66.2301 81.3934 66.1037 81.5017 65.9415C81.6101 65.7793 81.668 65.5886 81.668 65.3936C81.668 65.132 81.5641 64.8811 81.3791 64.6961C81.1941 64.5111 80.9432 64.4072 80.6816 64.4072Z" fill="#5546CB"/>
<path d="M53.1631 33.9297H53.6562C58.4893 33.5352 63.7168 34.7188 69.2402 37.2833C63.125 34.2256 57.7988 33.4366 53.1631 33.9297ZM34.916 46.3575C34.1072 47.5896 33.3823 48.8747 32.7461 50.2042C33.4048 48.8866 34.129 47.6027 34.916 46.3575Z" fill="#F97744"/>
<path d="M87.8818 81.7666H61.5469L60.4619 78.0185H85.2188V76.0459H59.8701L58.8838 72.791H85.2188V70.8183H58.3906L48.5273 36.9873C54.3467 34.8173 61.1523 35.6064 68.7471 39.1572C69.1416 39.3545 69.9307 39.5517 70.7197 38.664C71.5088 37.7763 71.4102 37.7763 71.8047 37.0859C72.1992 36.3955 74.0732 33.6337 76.2432 32.6474C79.5967 31.2666 82.1611 32.5488 84.1338 33.4365L85.0215 33.831L86.7969 34.6201L86.3037 32.7461C85.1201 27.8144 83.0488 23.4746 80.1885 19.8252C77.3281 16.1757 73.9746 13.6113 69.9307 11.54C65.8867 9.46871 59.5742 7.69332 53.7549 7.59469C47.9753 7.47254 42.233 8.54714 36.8887 10.7509C36.5928 10.8496 28.5049 14.4003 21.8965 22.291C17.9512 26.9267 15.3867 32.0556 14.2031 37.5791C12.7236 44.4834 13.4141 52.0781 16.1758 59.9687L16.9648 62.3359L17.9512 60.0673C19.8252 55.7275 22.8828 53.2617 26.9268 52.6699C28.8075 52.3987 30.7244 52.5333 32.5488 53.0644L33.3379 53.3603L33.7324 52.5712L34.0283 51.9795C35.1133 49.7109 38.1709 43.5957 43.5957 39.6503C44.5627 38.9729 45.5856 38.379 46.6533 37.875L56.2207 70.917H14.9922V72.8896H56.9111L57.8975 76.1445H14.9922V78.1171H58.3906L59.4756 81.8652H12.3291V83.8379H25.8418V89.2627C25.8418 89.5242 25.9457 89.7751 26.1307 89.9601C26.3157 90.1451 26.5665 90.249 26.8281 90.249C27.0897 90.249 27.3406 90.1451 27.5256 89.9601C27.7105 89.7751 27.8145 89.5242 27.8145 89.2627V83.7392H60.0674L61.6455 89.2627C61.7106 89.4705 61.8427 89.6509 62.0211 89.7758C62.1995 89.9007 62.4143 89.963 62.6318 89.9531H62.9277C63.1738 89.8837 63.3832 89.7215 63.512 89.5008C63.6408 89.28 63.6789 89.0178 63.6182 88.7695L62.1387 83.8379H72.9883V89.2627C72.9883 89.5242 73.0922 89.7751 73.2772 89.9601C73.4621 90.1451 73.713 90.249 73.9746 90.249C74.2362 90.249 74.4871 90.1451 74.672 89.9601C74.857 89.7751 74.9609 89.5242 74.9609 89.2627V83.7392H87.8818V81.7666ZM34.916 46.3574C34.129 47.6026 33.4048 48.8865 32.7461 50.2041L32.4502 50.7959C30.61 50.3545 28.7045 50.2542 26.8281 50.5C23.9678 50.8945 20.1211 52.374 17.3594 56.9111C15.2881 50.1054 14.8936 43.7929 16.1758 37.875C17.458 31.957 19.7266 27.8144 23.4746 23.3759C28.1104 17.8525 33.6338 14.499 36.1982 13.1181L37.0859 12.625L37.7764 12.3291C42.8577 10.3258 48.2959 9.38584 53.7549 9.56734C59.2783 9.66597 64.6045 11.0468 69.2402 13.414C76.5391 17.1621 81.668 23.3759 84.0352 31.2666C81.9639 30.3789 79.1035 29.4912 75.5527 30.9707C72.002 32.4502 71.2129 34.5214 70.2266 36.1982L69.4375 37.3818C63.8154 34.7187 58.5879 33.6337 53.8535 34.0283H53.3604C43.793 35.0146 37.875 41.7216 34.916 46.3574Z" fill="#5546CB"/>
<path d="M36.0996 13.3154C33.4365 14.6963 28.0117 18.0498 23.376 23.5732C19.7266 27.9131 17.2608 32.8447 16.0772 38.0723C14.8936 43.2998 15.1895 50.4014 17.2608 57.1084C20.0225 52.5713 23.8692 51.0918 26.7295 50.6973C28.6059 50.4515 30.5114 50.5518 32.3516 50.9932C22.1924 27.5186 33.7324 15.4854 36.0996 13.3154Z" fill="#FDCD60"/>
<path d="M69.3389 37.2832L70.1279 36.0996C71.1143 34.5215 72.6924 32.0556 75.4541 30.872C78.2158 29.6884 81.8652 30.2802 83.9365 31.1679C81.5693 23.1787 76.4404 17.0634 69.1416 13.3154C64.6045 10.9482 59.1797 9.66598 53.6562 9.46871C48.1505 9.33623 42.6769 10.3437 37.5791 12.4277L36.8887 12.7236C57.7002 8.38375 69.7334 34.8173 69.3389 37.2832Z" fill="#FF8859"/>
<path d="M69.3389 37.2832C69.6348 34.8174 57.6016 8.38377 36.9873 12.8223L36.0996 13.3154C33.7324 15.4853 22.1924 27.5185 32.4502 50.8945L32.7461 50.3027C33.3823 48.9733 34.1072 47.6881 34.916 46.456C37.9736 41.8203 43.8916 35.1133 53.2617 34.0283C57.7988 33.4365 63.125 34.2256 69.3389 37.2832Z" fill="white"/>
</svg>
