<svg width="33" height="33" viewBox="0 0 33 33" fill="none" xmlns="http://www.w3.org/2000/svg">
<path d="M21.6647 19.396L21.0384 20.0186C21.0384 20.0186 19.5498 21.4988 15.4867 17.4586C11.4236 13.4186 12.9121 11.9385 12.9121 11.9385L13.3065 11.5464C14.278 10.5804 14.3696 9.02949 13.5219 7.89727L11.7881 5.58122C10.739 4.17988 8.71184 3.99476 7.50939 5.19038L5.35119 7.33633C4.75497 7.92917 4.35542 8.69768 4.40387 9.5502C4.52783 11.7312 5.51463 16.424 11.021 21.8991C16.8603 27.7051 22.3393 27.9359 24.5798 27.727C25.2885 27.661 25.9048 27.3001 26.4014 26.8062L28.3547 24.8641C29.6732 23.553 29.3014 21.3055 27.6144 20.3885L24.9875 18.9604C23.8798 18.3583 22.5304 18.5351 21.6647 19.396Z" fill="black"/>
</svg>
